%FSAX24Y24*%
%MOIN*%
G70*
G01*
G75*
G04 Layer_Physical_Order=1*
G04 Layer_Color=255*
%ADD10R,0.0600X0.0600*%
%ADD11R,0.0276X0.0354*%
%ADD12R,0.0354X0.0276*%
%ADD13R,0.0315X0.0354*%
%ADD14R,0.0354X0.0315*%
%ADD15R,0.0866X0.1142*%
%ADD16R,0.0236X0.1024*%
%ADD17O,0.0236X0.1024*%
%ADD18R,0.0118X0.0630*%
%ADD19O,0.0118X0.0630*%
%ADD20R,0.0945X0.1299*%
%ADD21R,0.0945X0.0394*%
%ADD22O,0.0807X0.0236*%
%ADD23O,0.0236X0.0807*%
%ADD24C,0.0139*%
%ADD25C,0.0100*%
%ADD26R,0.0630X0.1181*%
%ADD27R,0.1075X0.1126*%
%ADD28R,0.1299X0.1654*%
%ADD29C,0.0787*%
%ADD30O,0.0591X0.0866*%
%ADD31C,0.0600*%
%ADD32C,0.0630*%
%ADD33C,0.0700*%
%ADD34C,0.1057*%
%ADD35R,0.0591X0.0591*%
%ADD36C,0.0591*%
%ADD37O,0.0433X0.0669*%
%ADD38C,0.0157*%
%ADD39O,0.0630X0.1535*%
%ADD40C,0.0350*%
G36*
X019097Y019570D02*
Y018791D01*
X019107Y018741D01*
X019136Y018699D01*
X019178Y018670D01*
X019228Y018660D01*
X032719D01*
Y006679D01*
X031472D01*
X031422Y006669D01*
X031380Y006640D01*
X031351Y006597D01*
X031341Y006547D01*
X031341Y006547D01*
X031341Y006547D01*
Y005878D01*
X031341Y005878D01*
X031341D01*
X031351Y005828D01*
X031380Y005785D01*
X031422Y005757D01*
X031472Y005747D01*
X032207D01*
Y004316D01*
X030831D01*
X030816Y004326D01*
X030766Y004336D01*
X030716Y004326D01*
X030673Y004298D01*
X030645Y004255D01*
X030643Y004246D01*
X030640Y004244D01*
X030640D01*
X030622Y004178D01*
X030479Y003790D01*
X030306Y003415D01*
X030104Y003055D01*
X029874Y002711D01*
X029619Y002387D01*
X029338Y002083D01*
X029035Y001803D01*
X028710Y001547D01*
X028367Y001318D01*
X028006Y001116D01*
X027631Y000943D01*
X027244Y000800D01*
X026846Y000688D01*
X026441Y000607D01*
X026031Y000559D01*
X025618Y000542D01*
X025205Y000559D01*
X024795Y000607D01*
X024390Y000688D01*
X023992Y000800D01*
X023604Y000943D01*
X023229Y001116D01*
X022869Y001318D01*
X022525Y001547D01*
X022201Y001803D01*
X021898Y002083D01*
X021617Y002387D01*
X021361Y002711D01*
X021132Y003055D01*
X020930Y003415D01*
X020757Y003790D01*
X020614Y004178D01*
X020502Y004576D01*
X020421Y004981D01*
X020373Y005391D01*
X020361Y005684D01*
X020359Y005684D01*
X020352Y005718D01*
X020354Y005720D01*
X020354D01*
Y007492D01*
X018102D01*
X018097Y007495D01*
X018047Y007505D01*
X016487D01*
X015935Y008057D01*
X015893Y008086D01*
X015843Y008096D01*
X013736D01*
X013686Y008086D01*
X013643Y008057D01*
X013615Y008015D01*
X013605Y007965D01*
Y005799D01*
X013609Y005780D01*
X013593Y005389D01*
X013545Y004979D01*
X013464Y004574D01*
X013352Y004176D01*
X013209Y003788D01*
X013036Y003413D01*
X012834Y003053D01*
X012605Y002709D01*
X012349Y002385D01*
X012069Y002082D01*
X011765Y001801D01*
X011441Y001545D01*
X011097Y001316D01*
X010737Y001114D01*
X010362Y000941D01*
X009974Y000798D01*
X009576Y000686D01*
X009171Y000605D01*
X008761Y000557D01*
X008348Y000541D01*
X007935Y000557D01*
X007525Y000605D01*
X007120Y000686D01*
X006722Y000798D01*
X006335Y000941D01*
X005960Y001114D01*
X005599Y001316D01*
X005256Y001545D01*
X004931Y001801D01*
X004628Y002082D01*
X004348Y002385D01*
X004092Y002709D01*
X003862Y003053D01*
X003660Y003413D01*
X003487Y003788D01*
X003344Y004176D01*
X003342Y004184D01*
X003342D01*
X003342Y004184D01*
X003340Y004194D01*
X003311Y004237D01*
X003269Y004265D01*
X003219Y004275D01*
X003216Y004275D01*
X003205Y004277D01*
X001092D01*
Y004881D01*
X002181D01*
X002231Y004891D01*
X002274Y004919D01*
X002302Y004962D01*
X002312Y005012D01*
X002312Y005012D01*
X002312Y005012D01*
Y005012D01*
Y005720D01*
X002302Y005771D01*
X002274Y005813D01*
X002231Y005842D01*
X002181Y005852D01*
X001092D01*
Y008516D01*
X003480D01*
Y009273D01*
X003527Y009287D01*
X003534Y009278D01*
X003618Y009222D01*
X003667Y009212D01*
Y009461D01*
Y009709D01*
X003618Y009700D01*
X003534Y009644D01*
X003527Y009634D01*
X003480Y009649D01*
Y011005D01*
X003527Y011019D01*
X003534Y011010D01*
X003618Y010954D01*
X003667Y010944D01*
Y011193D01*
Y011442D01*
X003618Y011432D01*
X003534Y011376D01*
X003527Y011367D01*
X003480Y011381D01*
Y012737D01*
X003527Y012752D01*
X003534Y012742D01*
X003618Y012686D01*
X003667Y012676D01*
Y012925D01*
Y013174D01*
X003618Y013164D01*
X003534Y013108D01*
X003527Y013099D01*
X003480Y013113D01*
Y014470D01*
X003527Y014484D01*
X003534Y014475D01*
X003618Y014418D01*
X003667Y014409D01*
Y014657D01*
Y014906D01*
X003618Y014897D01*
X003534Y014840D01*
X003527Y014831D01*
X003480Y014845D01*
Y016974D01*
X003524Y016997D01*
X003582Y016958D01*
X003631Y016948D01*
Y017197D01*
Y017446D01*
X003582Y017436D01*
X003524Y017397D01*
X003480Y017420D01*
Y019499D01*
X003525Y019520D01*
X003604Y019450D01*
X003846Y019289D01*
X004107Y019160D01*
X004382Y019067D01*
X004667Y019010D01*
X004957Y018991D01*
X005247Y019010D01*
X005532Y019067D01*
X005807Y019160D01*
X006067Y019289D01*
X006309Y019450D01*
X006485Y019605D01*
X019062Y019605D01*
X019097Y019570D01*
D02*
G37*
%LPC*%
G36*
X005412Y009030D02*
Y008474D01*
X005968D01*
X005961Y008543D01*
X005926Y008658D01*
X005870Y008763D01*
X005794Y008856D01*
X005701Y008932D01*
X005596Y008988D01*
X005481Y009023D01*
X005412Y009030D01*
D02*
G37*
G36*
X011312D02*
X011243Y009023D01*
X011129Y008988D01*
X011023Y008932D01*
X010931Y008856D01*
X010855Y008763D01*
X010798Y008658D01*
X010764Y008543D01*
X010757Y008474D01*
X011312D01*
Y009030D01*
D02*
G37*
G36*
X005312D02*
X005243Y009023D01*
X005129Y008988D01*
X005023Y008932D01*
X004931Y008856D01*
X004855Y008763D01*
X004798Y008658D01*
X004764Y008543D01*
X004757Y008474D01*
X005312D01*
Y009030D01*
D02*
G37*
G36*
X027282Y008749D02*
X026906D01*
Y008373D01*
X026968Y008382D01*
X027073Y008425D01*
X027162Y008493D01*
X027231Y008583D01*
X027274Y008687D01*
X027282Y008749D01*
D02*
G37*
G36*
X026806D02*
X026430D01*
X026439Y008687D01*
X026482Y008583D01*
X026551Y008493D01*
X026640Y008425D01*
X026744Y008382D01*
X026806Y008373D01*
Y008749D01*
D02*
G37*
G36*
X011412Y009030D02*
Y008474D01*
X011968D01*
X011961Y008543D01*
X011926Y008658D01*
X011870Y008763D01*
X011794Y008856D01*
X011701Y008932D01*
X011596Y008988D01*
X011481Y009023D01*
X011412Y009030D01*
D02*
G37*
G36*
X028656D02*
Y008474D01*
X029212D01*
X029205Y008543D01*
X029170Y008658D01*
X029114Y008763D01*
X029038Y008856D01*
X028945Y008932D01*
X028840Y008988D01*
X028725Y009023D01*
X028656Y009030D01*
D02*
G37*
G36*
X007062Y009225D02*
X007000Y009217D01*
X006896Y009174D01*
X006806Y009105D01*
X006738Y009015D01*
X006694Y008911D01*
X006686Y008849D01*
X007062D01*
Y009225D01*
D02*
G37*
G36*
X028556Y009030D02*
X028487Y009023D01*
X028373Y008988D01*
X028267Y008932D01*
X028175Y008856D01*
X028099Y008763D01*
X028042Y008658D01*
X028008Y008543D01*
X028001Y008474D01*
X028556D01*
Y009030D01*
D02*
G37*
G36*
X022556D02*
X022487Y009023D01*
X022373Y008988D01*
X022267Y008932D01*
X022175Y008856D01*
X022099Y008763D01*
X022042Y008658D01*
X022008Y008543D01*
X022001Y008474D01*
X022556D01*
Y009030D01*
D02*
G37*
G36*
X022656D02*
Y008474D01*
X023212D01*
X023205Y008543D01*
X023170Y008658D01*
X023114Y008763D01*
X023038Y008856D01*
X022945Y008932D01*
X022840Y008988D01*
X022725Y009023D01*
X022656Y009030D01*
D02*
G37*
G36*
X024782Y008749D02*
X024406D01*
Y008373D01*
X024468Y008382D01*
X024573Y008425D01*
X024662Y008493D01*
X024731Y008583D01*
X024774Y008687D01*
X024782Y008749D01*
D02*
G37*
G36*
X002249Y008292D02*
X002200Y008282D01*
X002116Y008226D01*
X002060Y008142D01*
X002050Y008093D01*
X002249D01*
Y008292D01*
D02*
G37*
G36*
X002349D02*
Y008093D01*
X002548D01*
X002538Y008142D01*
X002482Y008226D01*
X002398Y008282D01*
X002349Y008292D01*
D02*
G37*
G36*
X029212Y008374D02*
X028656D01*
Y007819D01*
X028725Y007826D01*
X028840Y007860D01*
X028945Y007917D01*
X029038Y007993D01*
X029114Y008085D01*
X029170Y008191D01*
X029205Y008305D01*
X029212Y008374D01*
D02*
G37*
G36*
X023212D02*
X022656D01*
Y007819D01*
X022725Y007826D01*
X022840Y007860D01*
X022945Y007917D01*
X023038Y007993D01*
X023114Y008085D01*
X023170Y008191D01*
X023205Y008305D01*
X023212Y008374D01*
D02*
G37*
G36*
X028556D02*
X028001D01*
X028008Y008305D01*
X028042Y008191D01*
X028099Y008085D01*
X028175Y007993D01*
X028267Y007917D01*
X028373Y007860D01*
X028487Y007826D01*
X028556Y007819D01*
Y008374D01*
D02*
G37*
G36*
X017760Y009110D02*
X017657Y009096D01*
X017561Y009056D01*
X017479Y008993D01*
X017416Y008911D01*
X017376Y008815D01*
X017363Y008713D01*
X017376Y008610D01*
X017416Y008514D01*
X017479Y008432D01*
X017561Y008369D01*
X017657Y008329D01*
X017760Y008316D01*
X017863Y008329D01*
X017958Y008369D01*
X018041Y008432D01*
X018104Y008514D01*
X018143Y008610D01*
X018157Y008713D01*
X018143Y008815D01*
X018104Y008911D01*
X018041Y008993D01*
X017958Y009056D01*
X017863Y009096D01*
X017760Y009110D01*
D02*
G37*
G36*
X010038Y008749D02*
X009662D01*
Y008373D01*
X009724Y008382D01*
X009828Y008425D01*
X009918Y008493D01*
X009987Y008583D01*
X010030Y008687D01*
X010038Y008749D01*
D02*
G37*
G36*
X024306D02*
X023930D01*
X023939Y008687D01*
X023982Y008583D01*
X024051Y008493D01*
X024140Y008425D01*
X024244Y008382D01*
X024306Y008373D01*
Y008749D01*
D02*
G37*
G36*
X009562D02*
X009186D01*
X009194Y008687D01*
X009238Y008583D01*
X009306Y008493D01*
X009396Y008425D01*
X009500Y008382D01*
X009562Y008373D01*
Y008749D01*
D02*
G37*
G36*
X007062D02*
X006686D01*
X006694Y008687D01*
X006738Y008583D01*
X006806Y008493D01*
X006896Y008425D01*
X007000Y008382D01*
X007062Y008373D01*
Y008749D01*
D02*
G37*
G36*
X007538D02*
X007162D01*
Y008373D01*
X007224Y008382D01*
X007328Y008425D01*
X007418Y008493D01*
X007487Y008583D01*
X007530Y008687D01*
X007538Y008749D01*
D02*
G37*
G36*
X013072Y010631D02*
X012743D01*
Y010302D01*
X013072D01*
Y010631D01*
D02*
G37*
G36*
X012643Y011060D02*
X012314D01*
Y010731D01*
X012643D01*
Y011060D01*
D02*
G37*
G36*
Y010631D02*
X012314D01*
Y010302D01*
X012643D01*
Y010631D01*
D02*
G37*
G36*
X013529Y010123D02*
X013480Y010113D01*
X013396Y010057D01*
X013340Y009973D01*
X013330Y009924D01*
X013529D01*
Y010123D01*
D02*
G37*
G36*
X013629D02*
Y009924D01*
X013828D01*
X013818Y009973D01*
X013762Y010057D01*
X013678Y010113D01*
X013629Y010123D01*
D02*
G37*
G36*
X013072Y011060D02*
X012743D01*
Y010731D01*
X013072D01*
Y011060D01*
D02*
G37*
G36*
X021732Y013114D02*
X021609Y013098D01*
X021494Y013050D01*
X021395Y012975D01*
X021320Y012876D01*
X021272Y012761D01*
X021256Y012638D01*
X021272Y012514D01*
X021320Y012400D01*
X021395Y012301D01*
X021494Y012225D01*
X021609Y012178D01*
X021732Y012161D01*
X021856Y012178D01*
X021971Y012225D01*
X022069Y012301D01*
X022145Y012400D01*
X022193Y012514D01*
X022209Y012638D01*
X022193Y012761D01*
X022145Y012876D01*
X022069Y012975D01*
X021971Y013050D01*
X021856Y013098D01*
X021732Y013114D01*
D02*
G37*
G36*
X025433D02*
X025310Y013098D01*
X025195Y013050D01*
X025096Y012975D01*
X025020Y012876D01*
X024973Y012761D01*
X024957Y012638D01*
X024973Y012514D01*
X025020Y012400D01*
X025096Y012301D01*
X025195Y012225D01*
X025310Y012178D01*
X025433Y012161D01*
X025556Y012178D01*
X025671Y012225D01*
X025770Y012301D01*
X025846Y012400D01*
X025893Y012514D01*
X025910Y012638D01*
X025893Y012761D01*
X025846Y012876D01*
X025770Y012975D01*
X025671Y013050D01*
X025556Y013098D01*
X025433Y013114D01*
D02*
G37*
G36*
X028461Y012413D02*
X027949D01*
Y012135D01*
X027881Y012068D01*
X027811Y012082D01*
X027712Y012062D01*
X027628Y012006D01*
X027572Y011922D01*
X027552Y011823D01*
X027572Y011724D01*
X027628Y011640D01*
X027712Y011584D01*
X027811Y011564D01*
X027910Y011584D01*
X027994Y011640D01*
X028050Y011724D01*
X028070Y011823D01*
X028069Y011827D01*
X028183Y011941D01*
X028272D01*
X028304Y011919D01*
X028314Y011917D01*
X028362Y011908D01*
X028362Y011908D01*
X028677D01*
Y011783D01*
X029077D01*
Y011350D01*
X029077Y011350D01*
X029087Y011302D01*
X029089Y011292D01*
X029121Y011243D01*
X029121Y011243D01*
X029121Y011243D01*
Y011243D01*
X029431Y010933D01*
Y007191D01*
X029390Y007174D01*
X029301Y007105D01*
X029232Y007015D01*
X029189Y006911D01*
X029174Y006799D01*
X029189Y006687D01*
X029215Y006622D01*
X024783Y002190D01*
X024718Y002217D01*
X024606Y002232D01*
X024494Y002217D01*
X024390Y002174D01*
X024301Y002105D01*
X024232Y002015D01*
X024189Y001911D01*
X024174Y001799D01*
X024189Y001687D01*
X024232Y001583D01*
X024301Y001493D01*
X024390Y001425D01*
X024494Y001381D01*
X024606Y001367D01*
X024718Y001381D01*
X024823Y001425D01*
X024912Y001493D01*
X024981Y001583D01*
X025024Y001687D01*
X025039Y001799D01*
X025024Y001911D01*
X024997Y001976D01*
X029429Y006408D01*
X029494Y006381D01*
X029606Y006367D01*
X029718Y006381D01*
X029823Y006425D01*
X029912Y006493D01*
X029981Y006583D01*
X030024Y006687D01*
X030039Y006799D01*
X030024Y006911D01*
X029981Y007015D01*
X029912Y007105D01*
X029823Y007174D01*
X029734Y007210D01*
Y010996D01*
X029734Y010996D01*
X029722Y011054D01*
X029712Y011070D01*
X029690Y011103D01*
X029690Y011103D01*
X029380Y011413D01*
Y011783D01*
X029780D01*
Y012335D01*
X028677D01*
Y012210D01*
X028461D01*
Y012413D01*
D02*
G37*
G36*
X003965Y011143D02*
X003767D01*
Y010944D01*
X003816Y010954D01*
X003899Y011010D01*
X003956Y011094D01*
X003965Y011143D01*
D02*
G37*
G36*
X003767Y011442D02*
Y011243D01*
X003965D01*
X003956Y011292D01*
X003899Y011376D01*
X003816Y011432D01*
X003767Y011442D01*
D02*
G37*
G36*
X013828Y009824D02*
X013629D01*
Y009625D01*
X013678Y009635D01*
X013762Y009691D01*
X013818Y009775D01*
X013828Y009824D01*
D02*
G37*
G36*
X024306Y009225D02*
X024244Y009217D01*
X024140Y009174D01*
X024051Y009105D01*
X023982Y009015D01*
X023939Y008911D01*
X023930Y008849D01*
X024306D01*
Y009225D01*
D02*
G37*
G36*
X024406D02*
Y008849D01*
X024782D01*
X024774Y008911D01*
X024731Y009015D01*
X024662Y009105D01*
X024573Y009174D01*
X024468Y009217D01*
X024406Y009225D01*
D02*
G37*
G36*
X009662D02*
Y008849D01*
X010038D01*
X010030Y008911D01*
X009987Y009015D01*
X009918Y009105D01*
X009828Y009174D01*
X009724Y009217D01*
X009662Y009225D01*
D02*
G37*
G36*
X007162D02*
Y008849D01*
X007538D01*
X007530Y008911D01*
X007487Y009015D01*
X007418Y009105D01*
X007328Y009174D01*
X007224Y009217D01*
X007162Y009225D01*
D02*
G37*
G36*
X009562D02*
X009500Y009217D01*
X009396Y009174D01*
X009306Y009105D01*
X009238Y009015D01*
X009194Y008911D01*
X009186Y008849D01*
X009562D01*
Y009225D01*
D02*
G37*
G36*
X026806D02*
X026744Y009217D01*
X026640Y009174D01*
X026551Y009105D01*
X026482Y009015D01*
X026439Y008911D01*
X026430Y008849D01*
X026806D01*
Y009225D01*
D02*
G37*
G36*
X003767Y009709D02*
Y009511D01*
X003965D01*
X003956Y009560D01*
X003899Y009644D01*
X003816Y009700D01*
X003767Y009709D01*
D02*
G37*
G36*
X013529Y009824D02*
X013330D01*
X013340Y009775D01*
X013396Y009691D01*
X013480Y009635D01*
X013529Y009625D01*
Y009824D01*
D02*
G37*
G36*
X003965Y009411D02*
X003767D01*
Y009212D01*
X003816Y009222D01*
X003899Y009278D01*
X003956Y009362D01*
X003965Y009411D01*
D02*
G37*
G36*
X026906Y009225D02*
Y008849D01*
X027282D01*
X027274Y008911D01*
X027231Y009015D01*
X027162Y009105D01*
X027073Y009174D01*
X026968Y009217D01*
X026906Y009225D01*
D02*
G37*
G36*
X016760Y009110D02*
X016657Y009096D01*
X016561Y009056D01*
X016479Y008993D01*
X016416Y008911D01*
X016404Y008883D01*
X016079D01*
Y009008D01*
X015646D01*
Y008496D01*
X016079D01*
Y008621D01*
X016375D01*
X016376Y008610D01*
X016416Y008514D01*
X016479Y008432D01*
X016561Y008369D01*
X016657Y008329D01*
X016760Y008316D01*
X016863Y008329D01*
X016958Y008369D01*
X017041Y008432D01*
X017104Y008514D01*
X017143Y008610D01*
X017157Y008713D01*
X017143Y008815D01*
X017104Y008911D01*
X017041Y008993D01*
X016958Y009056D01*
X016863Y009096D01*
X016760Y009110D01*
D02*
G37*
G36*
X023212Y003124D02*
X022656D01*
Y002569D01*
X022725Y002575D01*
X022840Y002610D01*
X022945Y002667D01*
X023038Y002743D01*
X023114Y002835D01*
X023170Y002941D01*
X023205Y003055D01*
X023212Y003124D01*
D02*
G37*
G36*
X028556D02*
X028001D01*
X028008Y003055D01*
X028042Y002941D01*
X028099Y002835D01*
X028175Y002743D01*
X028267Y002667D01*
X028373Y002610D01*
X028487Y002575D01*
X028556Y002569D01*
Y003124D01*
D02*
G37*
G36*
X022556D02*
X022001D01*
X022008Y003055D01*
X022042Y002941D01*
X022099Y002835D01*
X022175Y002743D01*
X022267Y002667D01*
X022373Y002610D01*
X022487Y002575D01*
X022556Y002569D01*
Y003124D01*
D02*
G37*
G36*
X011312D02*
X010757D01*
X010764Y003055D01*
X010798Y002941D01*
X010855Y002835D01*
X010931Y002743D01*
X011023Y002667D01*
X011129Y002610D01*
X011243Y002575D01*
X011312Y002569D01*
Y003124D01*
D02*
G37*
G36*
X011968D02*
X011412D01*
Y002569D01*
X011481Y002575D01*
X011596Y002610D01*
X011701Y002667D01*
X011794Y002743D01*
X011870Y002835D01*
X011926Y002941D01*
X011961Y003055D01*
X011968Y003124D01*
D02*
G37*
G36*
X029212D02*
X028656D01*
Y002569D01*
X028725Y002575D01*
X028840Y002610D01*
X028945Y002667D01*
X029038Y002743D01*
X029114Y002835D01*
X029170Y002941D01*
X029205Y003055D01*
X029212Y003124D01*
D02*
G37*
G36*
X011412Y003780D02*
Y003224D01*
X011968D01*
X011961Y003293D01*
X011926Y003408D01*
X011870Y003513D01*
X011794Y003606D01*
X011701Y003682D01*
X011596Y003738D01*
X011481Y003773D01*
X011412Y003780D01*
D02*
G37*
G36*
X022556D02*
X022487Y003773D01*
X022373Y003738D01*
X022267Y003682D01*
X022175Y003606D01*
X022099Y003513D01*
X022042Y003408D01*
X022008Y003293D01*
X022001Y003224D01*
X022556D01*
Y003780D01*
D02*
G37*
G36*
X011312D02*
X011243Y003773D01*
X011129Y003738D01*
X011023Y003682D01*
X010931Y003606D01*
X010855Y003513D01*
X010798Y003408D01*
X010764Y003293D01*
X010757Y003224D01*
X011312D01*
Y003780D01*
D02*
G37*
G36*
X005312D02*
X005243Y003773D01*
X005129Y003738D01*
X005023Y003682D01*
X004931Y003606D01*
X004855Y003513D01*
X004798Y003408D01*
X004764Y003293D01*
X004757Y003224D01*
X005312D01*
Y003780D01*
D02*
G37*
G36*
X005412D02*
Y003224D01*
X005968D01*
X005961Y003293D01*
X005926Y003408D01*
X005870Y003513D01*
X005794Y003606D01*
X005701Y003682D01*
X005596Y003738D01*
X005481Y003773D01*
X005412Y003780D01*
D02*
G37*
G36*
X005968Y003124D02*
X005412D01*
Y002569D01*
X005481Y002575D01*
X005596Y002610D01*
X005701Y002667D01*
X005794Y002743D01*
X005870Y002835D01*
X005926Y002941D01*
X005961Y003055D01*
X005968Y003124D01*
D02*
G37*
G36*
X009788Y001749D02*
X009412D01*
Y001373D01*
X009474Y001381D01*
X009578Y001425D01*
X009668Y001493D01*
X009737Y001583D01*
X009780Y001687D01*
X009788Y001749D01*
D02*
G37*
G36*
X026556D02*
X026180D01*
X026189Y001687D01*
X026232Y001583D01*
X026301Y001493D01*
X026390Y001425D01*
X026494Y001381D01*
X026556Y001373D01*
Y001749D01*
D02*
G37*
G36*
X009312D02*
X008936D01*
X008945Y001687D01*
X008988Y001583D01*
X009056Y001493D01*
X009146Y001425D01*
X009250Y001381D01*
X009312Y001373D01*
Y001749D01*
D02*
G37*
G36*
X008362Y002232D02*
X008250Y002217D01*
X008146Y002174D01*
X008056Y002105D01*
X007988Y002015D01*
X007944Y001911D01*
X007930Y001799D01*
X007944Y001687D01*
X007988Y001583D01*
X008056Y001493D01*
X008146Y001425D01*
X008250Y001381D01*
X008362Y001367D01*
X008474Y001381D01*
X008578Y001425D01*
X008668Y001493D01*
X008737Y001583D01*
X008780Y001687D01*
X008795Y001799D01*
X008780Y001911D01*
X008737Y002015D01*
X008668Y002105D01*
X008578Y002174D01*
X008474Y002217D01*
X008362Y002232D01*
D02*
G37*
G36*
X025606D02*
X025494Y002217D01*
X025390Y002174D01*
X025301Y002105D01*
X025232Y002015D01*
X025189Y001911D01*
X025174Y001799D01*
X025189Y001687D01*
X025232Y001583D01*
X025301Y001493D01*
X025390Y001425D01*
X025494Y001381D01*
X025606Y001367D01*
X025718Y001381D01*
X025823Y001425D01*
X025912Y001493D01*
X025981Y001583D01*
X026024Y001687D01*
X026039Y001799D01*
X026024Y001911D01*
X025981Y002015D01*
X025912Y002105D01*
X025823Y002174D01*
X025718Y002217D01*
X025606Y002232D01*
D02*
G37*
G36*
X027032Y001749D02*
X026656D01*
Y001373D01*
X026718Y001381D01*
X026823Y001425D01*
X026912Y001493D01*
X026981Y001583D01*
X027024Y001687D01*
X027032Y001749D01*
D02*
G37*
G36*
X026656Y002225D02*
Y001849D01*
X027032D01*
X027024Y001911D01*
X026981Y002015D01*
X026912Y002105D01*
X026823Y002174D01*
X026718Y002217D01*
X026656Y002225D01*
D02*
G37*
G36*
X005312Y003124D02*
X004757D01*
X004764Y003055D01*
X004798Y002941D01*
X004855Y002835D01*
X004931Y002743D01*
X005023Y002667D01*
X005129Y002610D01*
X005243Y002575D01*
X005312Y002569D01*
Y003124D01*
D02*
G37*
G36*
X026556Y002225D02*
X026494Y002217D01*
X026390Y002174D01*
X026301Y002105D01*
X026232Y002015D01*
X026189Y001911D01*
X026180Y001849D01*
X026556D01*
Y002225D01*
D02*
G37*
G36*
X009312D02*
X009250Y002217D01*
X009146Y002174D01*
X009056Y002105D01*
X008988Y002015D01*
X008945Y001911D01*
X008936Y001849D01*
X009312D01*
Y002225D01*
D02*
G37*
G36*
X009412D02*
Y001849D01*
X009788D01*
X009780Y001911D01*
X009737Y002015D01*
X009668Y002105D01*
X009578Y002174D01*
X009474Y002217D01*
X009412Y002225D01*
D02*
G37*
G36*
X025736Y006830D02*
X023180D01*
Y005872D01*
X025736D01*
Y006830D01*
D02*
G37*
G36*
X002249Y007993D02*
X002050D01*
X002060Y007944D01*
X002116Y007860D01*
X002200Y007804D01*
X002249Y007795D01*
Y007993D01*
D02*
G37*
G36*
X008791Y006668D02*
X005735D01*
Y005711D01*
X005735Y005711D01*
X005735Y005672D01*
X005735D01*
Y004715D01*
X009291D01*
Y005672D01*
X008791D01*
Y005711D01*
X008791D01*
Y006668D01*
D02*
G37*
G36*
X012362Y006232D02*
X012250Y006217D01*
X012146Y006174D01*
X012056Y006105D01*
X011988Y006015D01*
X011945Y005911D01*
X011930Y005799D01*
X011945Y005687D01*
X011988Y005583D01*
X012056Y005493D01*
X012146Y005425D01*
X012250Y005381D01*
X012362Y005367D01*
X012474Y005381D01*
X012578Y005425D01*
X012668Y005493D01*
X012737Y005583D01*
X012780Y005687D01*
X012795Y005799D01*
X012780Y005911D01*
X012737Y006015D01*
X012668Y006105D01*
X012578Y006174D01*
X012474Y006217D01*
X012362Y006232D01*
D02*
G37*
G36*
X029606D02*
X029494Y006217D01*
X029390Y006174D01*
X029301Y006105D01*
X029232Y006015D01*
X029189Y005911D01*
X029174Y005799D01*
X029189Y005687D01*
X029232Y005583D01*
X029301Y005493D01*
X029390Y005425D01*
X029494Y005381D01*
X029606Y005367D01*
X029718Y005381D01*
X029823Y005425D01*
X029912Y005493D01*
X029981Y005583D01*
X030024Y005687D01*
X030039Y005799D01*
X030024Y005911D01*
X029981Y006015D01*
X029912Y006105D01*
X029823Y006174D01*
X029718Y006217D01*
X029606Y006232D01*
D02*
G37*
G36*
X002548Y007993D02*
X002349D01*
Y007795D01*
X002398Y007804D01*
X002482Y007860D01*
X002538Y007944D01*
X002548Y007993D01*
D02*
G37*
G36*
X011968Y008374D02*
X011412D01*
Y007819D01*
X011481Y007826D01*
X011596Y007860D01*
X011701Y007917D01*
X011794Y007993D01*
X011870Y008085D01*
X011926Y008191D01*
X011961Y008305D01*
X011968Y008374D01*
D02*
G37*
G36*
X022556D02*
X022001D01*
X022008Y008305D01*
X022042Y008191D01*
X022099Y008085D01*
X022175Y007993D01*
X022267Y007917D01*
X022373Y007860D01*
X022487Y007826D01*
X022556Y007819D01*
Y008374D01*
D02*
G37*
G36*
X011312D02*
X010757D01*
X010764Y008305D01*
X010798Y008191D01*
X010855Y008085D01*
X010931Y007993D01*
X011023Y007917D01*
X011129Y007860D01*
X011243Y007826D01*
X011312Y007819D01*
Y008374D01*
D02*
G37*
G36*
X005312D02*
X004757D01*
X004764Y008305D01*
X004798Y008191D01*
X004855Y008085D01*
X004931Y007993D01*
X005023Y007917D01*
X005129Y007860D01*
X005243Y007826D01*
X005312Y007819D01*
Y008374D01*
D02*
G37*
G36*
X005968D02*
X005412D01*
Y007819D01*
X005481Y007826D01*
X005596Y007860D01*
X005701Y007917D01*
X005794Y007993D01*
X005870Y008085D01*
X005926Y008191D01*
X005961Y008305D01*
X005968Y008374D01*
D02*
G37*
G36*
X029656Y005225D02*
Y004849D01*
X030032D01*
X030024Y004911D01*
X029981Y005015D01*
X029912Y005105D01*
X029823Y005174D01*
X029718Y005217D01*
X029656Y005225D01*
D02*
G37*
G36*
X012312Y004749D02*
X011936D01*
X011945Y004687D01*
X011988Y004583D01*
X012056Y004493D01*
X012146Y004425D01*
X012250Y004381D01*
X012312Y004373D01*
Y004749D01*
D02*
G37*
G36*
X012788D02*
X012412D01*
Y004373D01*
X012474Y004381D01*
X012578Y004425D01*
X012668Y004493D01*
X012737Y004583D01*
X012780Y004687D01*
X012788Y004749D01*
D02*
G37*
G36*
X028656Y003780D02*
Y003224D01*
X029212D01*
X029205Y003293D01*
X029170Y003408D01*
X029114Y003513D01*
X029038Y003606D01*
X028945Y003682D01*
X028840Y003738D01*
X028725Y003773D01*
X028656Y003780D01*
D02*
G37*
G36*
X022656D02*
Y003224D01*
X023212D01*
X023205Y003293D01*
X023170Y003408D01*
X023114Y003513D01*
X023038Y003606D01*
X022945Y003682D01*
X022840Y003738D01*
X022725Y003773D01*
X022656Y003780D01*
D02*
G37*
G36*
X028556D02*
X028487Y003773D01*
X028373Y003738D01*
X028267Y003682D01*
X028175Y003606D01*
X028099Y003513D01*
X028042Y003408D01*
X028008Y003293D01*
X028001Y003224D01*
X028556D01*
Y003780D01*
D02*
G37*
G36*
X029556Y004749D02*
X029180D01*
X029189Y004687D01*
X029232Y004583D01*
X029301Y004493D01*
X029390Y004425D01*
X029494Y004381D01*
X029556Y004373D01*
Y004749D01*
D02*
G37*
G36*
X012412Y005225D02*
Y004849D01*
X012788D01*
X012780Y004911D01*
X012737Y005015D01*
X012668Y005105D01*
X012578Y005174D01*
X012474Y005217D01*
X012412Y005225D01*
D02*
G37*
G36*
X029556D02*
X029494Y005217D01*
X029390Y005174D01*
X029301Y005105D01*
X029232Y005015D01*
X029189Y004911D01*
X029180Y004849D01*
X029556D01*
Y005225D01*
D02*
G37*
G36*
X012312D02*
X012250Y005217D01*
X012146Y005174D01*
X012056Y005105D01*
X011988Y005015D01*
X011945Y004911D01*
X011936Y004849D01*
X012312D01*
Y005225D01*
D02*
G37*
G36*
X030032Y004749D02*
X029656D01*
Y004373D01*
X029718Y004381D01*
X029823Y004425D01*
X029912Y004493D01*
X029981Y004583D01*
X030024Y004687D01*
X030032Y004749D01*
D02*
G37*
G36*
X025736Y005700D02*
X023180D01*
Y004743D01*
X025736D01*
Y005700D01*
D02*
G37*
G36*
X031462Y012915D02*
X030961D01*
Y012236D01*
X031462D01*
Y012915D01*
D02*
G37*
G36*
X013824Y017354D02*
X013638D01*
Y017148D01*
X013824D01*
Y017354D01*
D02*
G37*
G36*
X014110D02*
X013924D01*
Y017148D01*
X014110D01*
Y017354D01*
D02*
G37*
G36*
X007535Y017315D02*
X007349D01*
Y017109D01*
X007535D01*
Y017315D01*
D02*
G37*
G36*
X029875Y017352D02*
X029554D01*
Y017031D01*
X029602Y017037D01*
X029693Y017075D01*
X029771Y017135D01*
X029831Y017213D01*
X029868Y017304D01*
X029875Y017352D01*
D02*
G37*
G36*
X007249Y017315D02*
X007063D01*
Y017109D01*
X007249D01*
Y017315D01*
D02*
G37*
G36*
X024415Y017347D02*
X024366Y017337D01*
X024282Y017281D01*
X024226Y017197D01*
X024216Y017148D01*
X024415D01*
Y017347D01*
D02*
G37*
G36*
X004672Y017465D02*
Y017267D01*
X004871D01*
X004861Y017316D01*
X004805Y017399D01*
X004721Y017456D01*
X004672Y017465D01*
D02*
G37*
G36*
X029454Y017772D02*
X029406Y017766D01*
X029315Y017728D01*
X029237Y017668D01*
X029177Y017590D01*
X029140Y017499D01*
X029133Y017452D01*
X029454D01*
Y017772D01*
D02*
G37*
G36*
X004572Y017465D02*
X004523Y017456D01*
X004439Y017399D01*
X004383Y017316D01*
X004373Y017267D01*
X004572D01*
Y017465D01*
D02*
G37*
G36*
X024515Y017347D02*
Y017148D01*
X024713D01*
X024704Y017197D01*
X024648Y017281D01*
X024564Y017337D01*
X024515Y017347D01*
D02*
G37*
G36*
X003731Y017446D02*
Y017247D01*
X003930D01*
X003920Y017296D01*
X003864Y017380D01*
X003780Y017436D01*
X003731Y017446D01*
D02*
G37*
G36*
X029454Y017352D02*
X029133D01*
X029140Y017304D01*
X029177Y017213D01*
X029237Y017135D01*
X029315Y017075D01*
X029406Y017037D01*
X029454Y017031D01*
Y017352D01*
D02*
G37*
G36*
X028037Y017236D02*
X027575D01*
Y016637D01*
X028037D01*
Y017236D01*
D02*
G37*
G36*
X028598D02*
X028137D01*
Y016637D01*
X028598D01*
Y017236D01*
D02*
G37*
G36*
X009415Y016619D02*
X009366Y016609D01*
X009282Y016553D01*
X009253Y016510D01*
X009204D01*
X009175Y016553D01*
X009091Y016609D01*
X009042Y016619D01*
Y016370D01*
X008992D01*
Y016320D01*
X008743D01*
X008753Y016271D01*
X008809Y016187D01*
X008852Y016158D01*
Y016109D01*
X008809Y016081D01*
X008753Y015997D01*
X008743Y015948D01*
X008992D01*
Y015898D01*
X009042D01*
Y015649D01*
X009091Y015659D01*
X009175Y015715D01*
X009204Y015758D01*
X009253D01*
X009282Y015715D01*
X009366Y015659D01*
X009415Y015649D01*
Y015898D01*
X009464D01*
Y015948D01*
X009713D01*
X009704Y015997D01*
X009647Y016081D01*
X009605Y016109D01*
Y016158D01*
X009647Y016187D01*
X009704Y016271D01*
X009713Y016320D01*
X009464D01*
Y016370D01*
X009415D01*
Y016619D01*
D02*
G37*
G36*
X008942D02*
X008893Y016609D01*
X008809Y016553D01*
X008753Y016469D01*
X008743Y016420D01*
X008942D01*
Y016619D01*
D02*
G37*
G36*
X009515D02*
Y016420D01*
X009713D01*
X009704Y016469D01*
X009647Y016553D01*
X009564Y016609D01*
X009515Y016619D01*
D02*
G37*
G36*
X024713Y017048D02*
X024216D01*
X024226Y016999D01*
X024282Y016915D01*
X024325Y016887D01*
Y016838D01*
X024282Y016809D01*
X024226Y016725D01*
X024216Y016676D01*
X024713D01*
X024704Y016725D01*
X024648Y016809D01*
X024605Y016838D01*
Y016887D01*
X024648Y016915D01*
X024704Y016999D01*
X024713Y017048D01*
D02*
G37*
G36*
X004572Y017167D02*
X004373D01*
X004383Y017118D01*
X004439Y017034D01*
X004523Y016978D01*
X004572Y016968D01*
Y017167D01*
D02*
G37*
G36*
X004871D02*
X004672D01*
Y016968D01*
X004721Y016978D01*
X004805Y017034D01*
X004861Y017118D01*
X004871Y017167D01*
D02*
G37*
G36*
X003930Y017147D02*
X003731D01*
Y016948D01*
X003780Y016958D01*
X003864Y017014D01*
X003920Y017098D01*
X003930Y017147D01*
D02*
G37*
G36*
X007249Y017009D02*
X007063D01*
Y016803D01*
X007249D01*
Y017009D01*
D02*
G37*
G36*
X007535D02*
X007349D01*
Y016803D01*
X007535D01*
Y017009D01*
D02*
G37*
G36*
X029554Y017772D02*
Y017452D01*
X029875D01*
X029868Y017499D01*
X029831Y017590D01*
X029771Y017668D01*
X029693Y017728D01*
X029602Y017766D01*
X029554Y017772D01*
D02*
G37*
G36*
X009792Y018859D02*
X009593D01*
Y018661D01*
X009642Y018670D01*
X009726Y018727D01*
X009782Y018810D01*
X009792Y018859D01*
D02*
G37*
G36*
X006895Y018899D02*
X006696D01*
X006706Y018850D01*
X006762Y018766D01*
X006846Y018710D01*
X006895Y018700D01*
Y018899D01*
D02*
G37*
G36*
X009493Y018859D02*
X009295D01*
X009304Y018810D01*
X009360Y018727D01*
X009444Y018670D01*
X009493Y018661D01*
Y018859D01*
D02*
G37*
G36*
X014180Y019280D02*
Y018487D01*
X014527D01*
Y018890D01*
X014513Y018993D01*
X014474Y019088D01*
X014411Y019171D01*
X014328Y019234D01*
X014233Y019273D01*
X014180Y019280D01*
D02*
G37*
G36*
X012378Y019365D02*
X012301Y019355D01*
X012229Y019325D01*
X012167Y019278D01*
X012120Y019216D01*
X012090Y019144D01*
X012080Y019067D01*
Y018837D01*
X011698Y018455D01*
X011653Y018474D01*
Y018408D01*
X011639Y018387D01*
X011306D01*
Y017594D01*
X011359Y017601D01*
X011454Y017640D01*
X011537Y017703D01*
X011570Y017747D01*
X011617Y017731D01*
Y015012D01*
X011627Y014962D01*
X011655Y014919D01*
X011655Y014919D01*
X011655D01*
Y014919D01*
X011655Y014919D01*
X011970Y014604D01*
X012013Y014576D01*
X012063Y014566D01*
X012395D01*
X012413Y014538D01*
X012422Y014522D01*
X012380Y014459D01*
X012374Y014432D01*
X012851D01*
Y014332D01*
X012374D01*
X012380Y014305D01*
X012390Y014290D01*
X012367Y014246D01*
X012176D01*
X011505Y014918D01*
X011456Y014951D01*
X011446Y014953D01*
X011398Y014962D01*
X011398Y014962D01*
X010574D01*
X010408Y015129D01*
X010431Y015172D01*
X010480Y015163D01*
X010579Y015182D01*
X010663Y015238D01*
X010719Y015322D01*
X010739Y015421D01*
X010719Y015520D01*
X010663Y015604D01*
X010612Y015639D01*
Y015720D01*
X010705D01*
Y016154D01*
X010193D01*
Y016154D01*
X010182D01*
X010147Y016188D01*
Y016311D01*
X010193D01*
Y016311D01*
X010705D01*
Y016744D01*
X010368D01*
X010103Y017009D01*
X010103Y017009D01*
X009787Y017324D01*
X009782Y017353D01*
X009777Y017359D01*
X009763Y017434D01*
X009707Y017518D01*
X009623Y017574D01*
X009524Y017593D01*
X009425Y017574D01*
X009341Y017518D01*
X009285Y017434D01*
X009265Y017335D01*
X009285Y017236D01*
X009341Y017152D01*
X009425Y017096D01*
X009524Y017076D01*
X009594Y017090D01*
X009845Y016839D01*
Y015358D01*
X009712Y015226D01*
X009685Y015231D01*
X009586Y015211D01*
X009502Y015155D01*
X009446Y015071D01*
X009442Y015053D01*
X009397Y015034D01*
X009367Y015054D01*
X009268Y015074D01*
X009220Y015064D01*
X009219Y015065D01*
X009210Y015074D01*
X009203Y015085D01*
X009192Y015092D01*
X009183Y015101D01*
X009171Y015106D01*
X009160Y015113D01*
X009148Y015116D01*
X009136Y015121D01*
X009123Y015121D01*
X009110Y015123D01*
X008554D01*
X008179Y015499D01*
Y015503D01*
X008230Y015538D01*
X008286Y015621D01*
X008306Y015720D01*
X008286Y015819D01*
X008230Y015903D01*
X008179Y015938D01*
Y016670D01*
X008339Y016830D01*
X008347Y016832D01*
X008431Y016888D01*
X008487Y016972D01*
X008507Y017071D01*
X008487Y017170D01*
X008431Y017254D01*
X008347Y017310D01*
X008248Y017330D01*
X008149Y017310D01*
X008126Y017294D01*
X008087Y017315D01*
Y017315D01*
X008087Y017315D01*
X007614D01*
Y016803D01*
X007893D01*
X007924Y016765D01*
X007916Y016724D01*
Y015938D01*
X007864Y015903D01*
X007808Y015819D01*
X007789Y015720D01*
X007808Y015621D01*
X007864Y015538D01*
X007916Y015503D01*
Y015445D01*
X007926Y015395D01*
X007954Y015352D01*
X007954Y015352D01*
X007954D01*
Y015352D01*
X007954Y015352D01*
X008072Y015234D01*
X008053Y015189D01*
X007890D01*
Y014677D01*
X008362D01*
Y014881D01*
X008407Y014899D01*
X008407Y014899D01*
Y014899D01*
X008450Y014871D01*
X008500Y014861D01*
X008979D01*
X009011Y014823D01*
X009009Y014815D01*
X009029Y014716D01*
X009085Y014632D01*
X009094Y014626D01*
X009080Y014579D01*
X008972D01*
Y014106D01*
X009484D01*
Y014579D01*
X009456D01*
X009441Y014626D01*
X009451Y014632D01*
X009507Y014716D01*
X009510Y014735D01*
X009556Y014754D01*
X009586Y014733D01*
X009685Y014714D01*
X009784Y014733D01*
X009868Y014790D01*
X009924Y014873D01*
X009944Y014972D01*
X009934Y015020D01*
X010012Y015097D01*
X010405Y014704D01*
X010405Y014704D01*
X010438Y014682D01*
X010454Y014671D01*
X010512Y014660D01*
X010512Y014660D01*
X010927D01*
X010950Y014616D01*
X010899Y014540D01*
X010879Y014441D01*
X010880Y014435D01*
X010846Y014400D01*
X010823Y014404D01*
X010724Y014385D01*
X010640Y014329D01*
X010584Y014245D01*
X010564Y014146D01*
X010584Y014047D01*
X010640Y013963D01*
X010692Y013928D01*
Y013378D01*
X010702Y013328D01*
X010730Y013285D01*
X010730Y013285D01*
X010730D01*
Y013285D01*
X010730Y013285D01*
X011616Y012399D01*
X011616D01*
X011616Y012399D01*
X011616Y012399D01*
Y012399D01*
X011658Y012371D01*
X011709Y012361D01*
X012416D01*
X012423Y012350D01*
X012488Y012307D01*
X012565Y012291D01*
X013136D01*
X013213Y012307D01*
X013255Y012335D01*
X013363Y012228D01*
X013334Y012185D01*
X013319Y012108D01*
Y011808D01*
X013032Y011521D01*
X010213D01*
X010162Y011511D01*
X010120Y011483D01*
X009816Y011179D01*
X009724Y011217D01*
X009612Y011232D01*
X009500Y011217D01*
X009396Y011174D01*
X009306Y011105D01*
X009238Y011015D01*
X009203Y010930D01*
X007522D01*
X007487Y011015D01*
X007418Y011105D01*
X007328Y011174D01*
X007224Y011217D01*
X007112Y011232D01*
X007000Y011217D01*
X006896Y011174D01*
X006806Y011105D01*
X006738Y011015D01*
X006694Y010911D01*
X006680Y010799D01*
X006694Y010687D01*
X006738Y010583D01*
X006806Y010493D01*
X006896Y010425D01*
X007000Y010382D01*
X007112Y010367D01*
X007224Y010382D01*
X007328Y010425D01*
X007418Y010493D01*
X007487Y010583D01*
X007522Y010668D01*
X009203D01*
X009238Y010583D01*
X009306Y010493D01*
X009396Y010425D01*
X009500Y010382D01*
X009612Y010367D01*
X009724Y010382D01*
X009828Y010425D01*
X009918Y010493D01*
X009987Y010583D01*
X010030Y010687D01*
X010045Y010799D01*
X010030Y010911D01*
X009998Y010989D01*
X010267Y011258D01*
X013087D01*
X013137Y011268D01*
X013179Y011297D01*
X013179Y011297D01*
X013179Y011297D01*
X013310Y011428D01*
X013359Y011423D01*
X013378Y011395D01*
X013443Y011352D01*
X013520Y011337D01*
X013596Y011352D01*
X013660Y011394D01*
X013676Y011386D01*
X013703Y011368D01*
Y011060D01*
X013220D01*
Y010302D01*
X013977D01*
D01*
X013977D01*
X013998Y010281D01*
Y009366D01*
X013491Y008859D01*
X013491Y008859D01*
X012861Y008229D01*
X012829Y008180D01*
X012827Y008170D01*
X012817Y008122D01*
X012817Y008122D01*
Y007886D01*
X012817Y007886D01*
X012817Y007886D01*
Y007476D01*
X012533Y007192D01*
X012474Y007217D01*
X012362Y007232D01*
X012250Y007217D01*
X012146Y007174D01*
X012056Y007105D01*
X011988Y007015D01*
X011945Y006911D01*
X011930Y006799D01*
X011945Y006687D01*
X011971Y006622D01*
X007539Y002190D01*
X007474Y002217D01*
X007362Y002232D01*
X007250Y002217D01*
X007146Y002174D01*
X007056Y002105D01*
X006988Y002015D01*
X006945Y001911D01*
X006930Y001799D01*
X006945Y001687D01*
X006988Y001583D01*
X007056Y001493D01*
X007146Y001425D01*
X007250Y001381D01*
X007362Y001367D01*
X007474Y001381D01*
X007578Y001425D01*
X007668Y001493D01*
X007737Y001583D01*
X007780Y001687D01*
X007795Y001799D01*
X007780Y001911D01*
X007753Y001976D01*
X012185Y006408D01*
X012250Y006381D01*
X012362Y006367D01*
X012474Y006381D01*
X012578Y006425D01*
X012668Y006493D01*
X012737Y006583D01*
X012780Y006687D01*
X012795Y006799D01*
X012780Y006911D01*
X012751Y006982D01*
X013075Y007306D01*
X013076Y007306D01*
X013108Y007355D01*
X013120Y007413D01*
Y007886D01*
X013120Y007886D01*
Y008059D01*
X013661Y008601D01*
X015055D01*
Y008496D01*
X015488D01*
Y009008D01*
X015055D01*
Y008903D01*
X014028D01*
X014009Y008949D01*
X014257Y009196D01*
X014257Y009196D01*
X014279Y009229D01*
X014289Y009245D01*
X014301Y009303D01*
X014301Y009303D01*
Y011358D01*
X014344Y011381D01*
X014388Y011352D01*
X014415Y011347D01*
Y011823D01*
X014515D01*
Y011347D01*
X014541Y011352D01*
X014605Y011394D01*
X014621Y011386D01*
X014648Y011368D01*
Y010839D01*
X014658Y010788D01*
X014687Y010746D01*
X014727Y010705D01*
Y010393D01*
X014718Y010346D01*
Y009835D01*
X014728Y009781D01*
X014759Y009735D01*
X014805Y009705D01*
X014858Y009694D01*
X014912Y009705D01*
X014958Y009735D01*
X014962Y009741D01*
X015011D01*
X015015Y009735D01*
X015060Y009705D01*
X015064Y009704D01*
Y010091D01*
X015164D01*
Y009704D01*
X015168Y009705D01*
X015214Y009735D01*
X015214D01*
X015232Y009697D01*
Y009697D01*
X015508D01*
Y010484D01*
X015501D01*
Y010760D01*
X015491Y010810D01*
X015463Y010853D01*
X015226Y011090D01*
Y011350D01*
X015252Y011364D01*
X015278Y011350D01*
Y011232D01*
X015288Y011182D01*
X015317Y011139D01*
X016458Y009998D01*
X016458D01*
X016458Y009998D01*
X016458Y009998D01*
Y009998D01*
X016501Y009969D01*
X016551Y009959D01*
X018341D01*
X018391Y009969D01*
X018434Y009998D01*
X018434Y009998D01*
X018434Y009998D01*
X019104Y010668D01*
X023947D01*
X023982Y010583D01*
X024051Y010493D01*
X024140Y010425D01*
X024244Y010382D01*
X024356Y010367D01*
X024468Y010382D01*
X024573Y010425D01*
X024662Y010493D01*
X024731Y010583D01*
X024766Y010668D01*
X026447D01*
X026482Y010583D01*
X026551Y010493D01*
X026640Y010425D01*
X026744Y010382D01*
X026856Y010367D01*
X026968Y010382D01*
X027073Y010425D01*
X027162Y010493D01*
X027231Y010583D01*
X027274Y010687D01*
X027289Y010799D01*
X027274Y010911D01*
X027231Y011015D01*
X027162Y011105D01*
X027073Y011174D01*
X026968Y011217D01*
X026856Y011232D01*
X026744Y011217D01*
X026640Y011174D01*
X026551Y011105D01*
X026482Y011015D01*
X026447Y010930D01*
X024766D01*
X024731Y011015D01*
X024662Y011105D01*
X024573Y011174D01*
X024468Y011217D01*
X024356Y011232D01*
X024244Y011217D01*
X024140Y011174D01*
X024051Y011105D01*
X023982Y011015D01*
X023947Y010930D01*
X019058D01*
X019042Y010970D01*
X019041Y010977D01*
X021251Y013188D01*
X025252D01*
X025302Y013198D01*
X025345Y013226D01*
X026919Y014801D01*
X026920Y014801D01*
X026948Y014843D01*
X026958Y014894D01*
Y014942D01*
X026969Y014949D01*
X027012Y015014D01*
X027027Y015091D01*
Y015878D01*
X027012Y015955D01*
X026969Y016020D01*
X026904Y016063D01*
X026827Y016079D01*
X026750Y016063D01*
X026685Y016020D01*
X026655Y015975D01*
X026605D01*
X026575Y016020D01*
X026510Y016063D01*
X026433Y016079D01*
X026356Y016063D01*
X026291Y016020D01*
X026261Y015975D01*
X026212D01*
X026181Y016020D01*
X026116Y016063D01*
X026039Y016079D01*
X025963Y016063D01*
X025897Y016020D01*
X025867Y015975D01*
X025818D01*
X025788Y016020D01*
X025722Y016063D01*
X025646Y016079D01*
X025569Y016063D01*
X025504Y016020D01*
X025473Y015975D01*
X025424D01*
X025394Y016020D01*
X025329Y016063D01*
X025252Y016079D01*
X025175Y016063D01*
X025110Y016020D01*
X025080Y015975D01*
X025031D01*
X025000Y016020D01*
X024935Y016063D01*
X024858Y016079D01*
X024781Y016063D01*
X024716Y016020D01*
X024708Y016008D01*
X024661Y016022D01*
Y016075D01*
X024515D01*
Y015484D01*
X024415D01*
Y016075D01*
X024268D01*
Y016022D01*
X024221Y016008D01*
X024213Y016020D01*
X024148Y016063D01*
X024071Y016079D01*
X023994Y016063D01*
X023929Y016020D01*
X023899Y015975D01*
X023849D01*
X023819Y016020D01*
X023754Y016063D01*
X023677Y016079D01*
X023600Y016063D01*
X023535Y016020D01*
X023505Y015975D01*
X023456D01*
X023425Y016020D01*
X023360Y016063D01*
X023283Y016079D01*
X023207Y016063D01*
X023142Y016020D01*
X023111Y015975D01*
X023062D01*
X023032Y016020D01*
X023021Y016027D01*
Y016154D01*
X023011Y016204D01*
X022983Y016246D01*
X020903Y018326D01*
X020860Y018354D01*
X020810Y018364D01*
X017135D01*
X017085Y018354D01*
X017042Y018326D01*
X015632Y016916D01*
X015603Y016873D01*
X015593Y016823D01*
Y016766D01*
X015566Y016748D01*
X015550Y016739D01*
X015486Y016782D01*
X015409Y016797D01*
X015333Y016782D01*
X015268Y016738D01*
X015236D01*
X015171Y016782D01*
X015094Y016797D01*
X015018Y016782D01*
X014953Y016738D01*
X014921D01*
X014856Y016782D01*
X014780Y016797D01*
X014703Y016782D01*
X014638Y016738D01*
X014606D01*
X014541Y016782D01*
X014465Y016797D01*
Y016808D01*
X014499Y016843D01*
X014661D01*
Y017354D01*
X014189D01*
Y017037D01*
X014156Y017004D01*
X014110Y017022D01*
Y017048D01*
X013638D01*
Y016843D01*
X013812D01*
X013816Y016794D01*
X013835Y016797D01*
X013885Y016787D01*
Y016311D01*
X013785D01*
Y016787D01*
X013758Y016782D01*
X013693Y016738D01*
X013662D01*
X013596Y016782D01*
X013520Y016797D01*
X013443Y016782D01*
X013378Y016738D01*
X013334Y016673D01*
X013319Y016596D01*
Y016026D01*
X013334Y015949D01*
X013358Y015913D01*
X013248Y015803D01*
X013213Y015827D01*
X013136Y015842D01*
X012982D01*
Y015897D01*
X013033Y015931D01*
X013089Y016015D01*
X013109Y016114D01*
X013089Y016213D01*
X013033Y016297D01*
X012949Y016353D01*
X012850Y016373D01*
X012751Y016353D01*
X012667Y016297D01*
X012611Y016213D01*
X012592Y016114D01*
X012611Y016015D01*
X012667Y015931D01*
X012719Y015897D01*
Y015842D01*
X012565D01*
X012488Y015827D01*
X012423Y015784D01*
X012380Y015719D01*
X012364Y015642D01*
X012380Y015565D01*
X012423Y015500D01*
Y015469D01*
X012380Y015404D01*
X012364Y015327D01*
X012380Y015250D01*
X012422Y015186D01*
X012413Y015170D01*
X012395Y015143D01*
X012235D01*
X012155Y015224D01*
Y016847D01*
X012786Y017478D01*
X012814Y017521D01*
X012814Y017521D01*
D01*
D01*
D01*
X012842Y017549D01*
X012842D01*
X012842Y017549D01*
X012904Y017596D01*
X012951Y017658D01*
X012981Y017730D01*
X012991Y017807D01*
Y018043D01*
X012981Y018120D01*
X012951Y018192D01*
X012904Y018254D01*
X012842Y018301D01*
X012770Y018331D01*
X012693Y018341D01*
X012616Y018331D01*
X012544Y018301D01*
X012482Y018254D01*
X012435Y018192D01*
X012405Y018120D01*
X012395Y018043D01*
Y017807D01*
X012405Y017730D01*
X012435Y017658D01*
X012482Y017596D01*
X012485Y017549D01*
X011931Y016994D01*
X011926Y016988D01*
X011879Y017002D01*
Y017735D01*
X011923Y017759D01*
X011979Y017721D01*
X012063Y017704D01*
X012147Y017721D01*
X012219Y017769D01*
X012267Y017841D01*
X012284Y017925D01*
X012267Y018010D01*
X012219Y018081D01*
X012147Y018129D01*
X012063Y018146D01*
X011979Y018129D01*
X011923Y018092D01*
X011879Y018115D01*
Y018265D01*
X012206Y018591D01*
X012229Y018573D01*
X012301Y018543D01*
X012378Y018533D01*
X012455Y018543D01*
X012527Y018573D01*
X012589Y018620D01*
X012636Y018682D01*
X012666Y018754D01*
X012676Y018831D01*
Y019067D01*
X012666Y019144D01*
X012636Y019216D01*
X012589Y019278D01*
X012527Y019325D01*
X012455Y019355D01*
X012378Y019365D01*
D02*
G37*
G36*
X007194Y018899D02*
X006995D01*
Y018700D01*
X007044Y018710D01*
X007128Y018766D01*
X007184Y018850D01*
X007194Y018899D01*
D02*
G37*
G36*
X006895Y019198D02*
X006846Y019188D01*
X006762Y019132D01*
X006706Y019048D01*
X006696Y018999D01*
X006895D01*
Y019198D01*
D02*
G37*
G36*
X006995D02*
Y018999D01*
X007194D01*
X007184Y019048D01*
X007128Y019132D01*
X007044Y019188D01*
X006995Y019198D01*
D02*
G37*
G36*
X009593Y019158D02*
Y018959D01*
X009792D01*
X009782Y019008D01*
X009726Y019092D01*
X009642Y019148D01*
X009593Y019158D01*
D02*
G37*
G36*
X013008Y019170D02*
X012923Y019153D01*
X012852Y019105D01*
X012804Y019033D01*
X012787Y018949D01*
X012804Y018864D01*
X012852Y018793D01*
X012923Y018745D01*
X013008Y018728D01*
X013092Y018745D01*
X013164Y018793D01*
X013212Y018864D01*
X013229Y018949D01*
X013212Y019033D01*
X013164Y019105D01*
X013092Y019153D01*
X013008Y019170D01*
D02*
G37*
G36*
X009493Y019158D02*
X009444Y019148D01*
X009360Y019092D01*
X009304Y019008D01*
X009295Y018959D01*
X009493D01*
Y019158D01*
D02*
G37*
G36*
X014080Y019280D02*
X014027Y019273D01*
X013931Y019234D01*
X013849Y019171D01*
X013786Y019088D01*
X013746Y018993D01*
X013733Y018890D01*
Y018487D01*
X014080D01*
Y019280D01*
D02*
G37*
G36*
X013273Y017875D02*
X013112D01*
X013119Y017841D01*
X013167Y017769D01*
X013238Y017721D01*
X013273Y017714D01*
Y017875D01*
D02*
G37*
G36*
X013534D02*
X013373D01*
Y017714D01*
X013407Y017721D01*
X013479Y017769D01*
X013527Y017841D01*
X013534Y017875D01*
D02*
G37*
G36*
X014527Y018387D02*
X014180D01*
Y017594D01*
X014233Y017601D01*
X014328Y017640D01*
X014411Y017703D01*
X014474Y017786D01*
X014513Y017881D01*
X014527Y017984D01*
Y018387D01*
D02*
G37*
G36*
X011206D02*
X010859D01*
Y017984D01*
X010872Y017881D01*
X010912Y017786D01*
X010975Y017703D01*
X011057Y017640D01*
X011153Y017601D01*
X011206Y017594D01*
Y018387D01*
D02*
G37*
G36*
X014080D02*
X013733D01*
Y017984D01*
X013746Y017881D01*
X013786Y017786D01*
X013849Y017703D01*
X013931Y017640D01*
X014027Y017601D01*
X014080Y017594D01*
Y018387D01*
D02*
G37*
G36*
X013273Y018136D02*
X013238Y018129D01*
X013167Y018081D01*
X013119Y018010D01*
X013112Y017975D01*
X013273D01*
Y018136D01*
D02*
G37*
G36*
X011206Y019280D02*
X011153Y019273D01*
X011057Y019234D01*
X010975Y019171D01*
X010912Y019088D01*
X010872Y018993D01*
X010859Y018890D01*
Y018487D01*
X011206D01*
Y019280D01*
D02*
G37*
G36*
X011306D02*
Y018487D01*
X011653D01*
Y018890D01*
X011639Y018993D01*
X011600Y019088D01*
X011537Y019171D01*
X011454Y019234D01*
X011359Y019273D01*
X011306Y019280D01*
D02*
G37*
G36*
X017720Y019228D02*
X017618Y019214D01*
X017522Y019175D01*
X017440Y019112D01*
X017377Y019029D01*
X017337Y018933D01*
X017323Y018831D01*
X017337Y018728D01*
X017377Y018632D01*
X017440Y018550D01*
X017522Y018487D01*
X017618Y018447D01*
X017720Y018434D01*
X017823Y018447D01*
X017919Y018487D01*
X018001Y018550D01*
X018064Y018632D01*
X018104Y018728D01*
X018118Y018831D01*
X018104Y018933D01*
X018064Y019029D01*
X018001Y019112D01*
X017919Y019175D01*
X017823Y019214D01*
X017720Y019228D01*
D02*
G37*
G36*
X013373Y018136D02*
Y017975D01*
X013534D01*
X013527Y018010D01*
X013479Y018081D01*
X013407Y018129D01*
X013373Y018136D01*
D02*
G37*
G36*
X016720Y019228D02*
X016618Y019214D01*
X016522Y019175D01*
X016440Y019112D01*
X016377Y019029D01*
X016337Y018933D01*
X016323Y018831D01*
X016337Y018728D01*
X016377Y018632D01*
X016440Y018550D01*
X016522Y018487D01*
X016618Y018447D01*
X016720Y018434D01*
X016823Y018447D01*
X016919Y018487D01*
X017001Y018550D01*
X017064Y018632D01*
X017104Y018728D01*
X017118Y018831D01*
X017104Y018933D01*
X017064Y019029D01*
X017001Y019112D01*
X016919Y019175D01*
X016823Y019214D01*
X016720Y019228D01*
D02*
G37*
G36*
X024713Y016576D02*
X024515D01*
Y016377D01*
X024564Y016387D01*
X024648Y016443D01*
X024704Y016527D01*
X024713Y016576D01*
D02*
G37*
G36*
X028461Y013230D02*
X028255D01*
Y013043D01*
X028461D01*
Y013230D01*
D02*
G37*
G36*
X028155Y013516D02*
X027949D01*
Y013330D01*
X028155D01*
Y013516D01*
D02*
G37*
G36*
Y013230D02*
X027949D01*
Y013043D01*
X028155D01*
Y013230D01*
D02*
G37*
G36*
X031462Y013693D02*
X030961D01*
Y013015D01*
X031462D01*
Y013693D01*
D02*
G37*
G36*
X032063D02*
X031562D01*
Y013015D01*
X032063D01*
Y013693D01*
D02*
G37*
G36*
X009178Y014028D02*
X008972D01*
Y013841D01*
X009178D01*
Y014028D01*
D02*
G37*
G36*
X009484D02*
X009278D01*
Y013841D01*
X009484D01*
Y014028D01*
D02*
G37*
G36*
Y013741D02*
X009278D01*
Y013555D01*
X009484D01*
Y013741D01*
D02*
G37*
G36*
X028461Y013516D02*
X028255D01*
Y013330D01*
X028461D01*
Y013516D01*
D02*
G37*
G36*
X009178Y013741D02*
X008972D01*
Y013555D01*
X009178D01*
Y013741D01*
D02*
G37*
G36*
X029780Y013240D02*
X029278D01*
Y013015D01*
X029780D01*
Y013240D01*
D02*
G37*
G36*
X003965Y012875D02*
X003767D01*
Y012676D01*
X003816Y012686D01*
X003899Y012742D01*
X003956Y012826D01*
X003965Y012875D01*
D02*
G37*
G36*
X029178Y012915D02*
X028677D01*
Y012689D01*
X029178D01*
Y012915D01*
D02*
G37*
G36*
X028461Y012678D02*
X028255D01*
Y012492D01*
X028461D01*
Y012678D01*
D02*
G37*
G36*
X032063Y012915D02*
X031562D01*
Y012236D01*
X032063D01*
Y012915D01*
D02*
G37*
G36*
X028155Y012678D02*
X027949D01*
Y012492D01*
X028155D01*
Y012678D01*
D02*
G37*
G36*
X003767Y013174D02*
Y012975D01*
X003965D01*
X003956Y013024D01*
X003899Y013108D01*
X003816Y013164D01*
X003767Y013174D01*
D02*
G37*
G36*
X029178Y013240D02*
X028677D01*
Y013015D01*
X029178D01*
Y013240D01*
D02*
G37*
G36*
X028461Y012965D02*
X028255D01*
Y012778D01*
X028461D01*
Y012965D01*
D02*
G37*
G36*
X029780Y012915D02*
X029278D01*
Y012689D01*
X029780D01*
Y012915D01*
D02*
G37*
G36*
X028155Y012965D02*
X027949D01*
Y012778D01*
X028155D01*
Y012965D01*
D02*
G37*
G36*
X029780Y014146D02*
X028677D01*
Y013982D01*
X028461D01*
Y014067D01*
X027949D01*
Y013982D01*
X027772D01*
X027714Y013971D01*
X027665Y013938D01*
X027665Y013938D01*
X025780Y012053D01*
X024409D01*
X024015Y012447D01*
X024043Y012514D01*
X024059Y012638D01*
X024043Y012761D01*
X023995Y012876D01*
X023920Y012975D01*
X023821Y013050D01*
X023706Y013098D01*
X023583Y013114D01*
X023459Y013098D01*
X023344Y013050D01*
X023246Y012975D01*
X023170Y012876D01*
X023122Y012761D01*
X023106Y012638D01*
X023122Y012514D01*
X023170Y012400D01*
X023246Y012301D01*
X023344Y012225D01*
X023459Y012178D01*
X023583Y012161D01*
X023706Y012178D01*
X023812Y012222D01*
X024239Y011795D01*
D01*
X024239D01*
X024239Y011795D01*
X024239Y011795D01*
X024239D01*
D01*
X024239D01*
X024239Y011795D01*
Y011795D01*
X024239Y011795D01*
Y011795D01*
X024289Y011762D01*
X024298Y011760D01*
X024346Y011750D01*
X024346Y011750D01*
X025843D01*
X025843Y011750D01*
X025891Y011760D01*
X025900Y011762D01*
X025950Y011795D01*
X025950Y011795D01*
X025950Y011795D01*
X027834Y013679D01*
X027949D01*
Y013594D01*
X028461D01*
Y013679D01*
X028677D01*
Y013594D01*
X029780D01*
Y014146D01*
D02*
G37*
G36*
X008942Y015848D02*
X008743D01*
X008753Y015799D01*
X008809Y015715D01*
X008893Y015659D01*
X008942Y015649D01*
Y015848D01*
D02*
G37*
G36*
X009713D02*
X009515D01*
Y015649D01*
X009564Y015659D01*
X009647Y015715D01*
X009704Y015799D01*
X009713Y015848D01*
D02*
G37*
G36*
X007525Y015189D02*
X007339D01*
Y014983D01*
X007525D01*
Y015189D01*
D02*
G37*
G36*
X007811D02*
X007625D01*
Y014983D01*
X007811D01*
Y015189D01*
D02*
G37*
G36*
X029878Y016776D02*
X029130D01*
Y016028D01*
X029878D01*
Y016776D01*
D02*
G37*
G36*
X024415Y016576D02*
X024216D01*
X024226Y016527D01*
X024282Y016443D01*
X024366Y016387D01*
X024415Y016377D01*
Y016576D01*
D02*
G37*
G36*
X028037Y016537D02*
X027575D01*
Y015937D01*
X028037D01*
Y016537D01*
D02*
G37*
G36*
X028598D02*
X028137D01*
Y015937D01*
X028598D01*
Y016537D01*
D02*
G37*
G36*
X005461Y014607D02*
X005263D01*
Y014409D01*
X005312Y014418D01*
X005396Y014475D01*
X005452Y014558D01*
X005461Y014607D01*
D02*
G37*
G36*
X007525Y014883D02*
X007339D01*
Y014677D01*
X007525D01*
Y014883D01*
D02*
G37*
G36*
X003965Y014607D02*
X003767D01*
Y014409D01*
X003816Y014418D01*
X003899Y014475D01*
X003956Y014558D01*
X003965Y014607D01*
D02*
G37*
G36*
X005163Y014607D02*
X004964D01*
X004974Y014558D01*
X005030Y014475D01*
X005114Y014418D01*
X005163Y014409D01*
Y014607D01*
D02*
G37*
G36*
X003767Y014906D02*
Y014707D01*
X003965D01*
X003956Y014756D01*
X003899Y014840D01*
X003816Y014897D01*
X003767Y014906D01*
D02*
G37*
G36*
X005163Y014906D02*
X005114Y014897D01*
X005030Y014840D01*
X004974Y014756D01*
X004964Y014707D01*
X005163D01*
Y014906D01*
D02*
G37*
G36*
X005263D02*
Y014707D01*
X005461D01*
X005452Y014756D01*
X005396Y014840D01*
X005312Y014897D01*
X005263Y014906D01*
D02*
G37*
G36*
X007811Y014883D02*
X007625D01*
Y014677D01*
X007811D01*
Y014883D01*
D02*
G37*
%LPD*%
G36*
X019874Y012945D02*
X018095Y011167D01*
X016999D01*
X016801Y011365D01*
Y011388D01*
X016811Y011395D01*
X016855Y011461D01*
X016870Y011537D01*
Y012108D01*
X016855Y012185D01*
X016820Y012237D01*
X016924Y012342D01*
X016976Y012307D01*
X017053Y012291D01*
X017289D01*
Y012492D01*
X017338D01*
Y012542D01*
X017815D01*
X017810Y012567D01*
X017853Y012590D01*
X018111Y012333D01*
X018103Y012295D01*
X018123Y012196D01*
X018179Y012112D01*
X018263Y012056D01*
X018362Y012037D01*
X018461Y012056D01*
X018545Y012112D01*
X018601Y012196D01*
X018621Y012295D01*
X018601Y012394D01*
X018545Y012478D01*
X018461Y012534D01*
X018362Y012554D01*
X018325Y012547D01*
X017957Y012914D01*
X017908Y012947D01*
X017899Y012949D01*
X017850Y012958D01*
X017883Y012991D01*
X019855D01*
X019874Y012945D01*
D02*
G37*
G36*
X018915Y017876D02*
X018230Y017191D01*
X018202Y017149D01*
X018192Y017098D01*
Y015932D01*
X018032Y015773D01*
X017773D01*
X017766Y015784D01*
X017701Y015827D01*
X017624Y015842D01*
X017053D01*
X016976Y015827D01*
X016948Y015808D01*
X016836Y015920D01*
X016855Y015949D01*
X016870Y016026D01*
Y016596D01*
X016855Y016673D01*
X016811Y016738D01*
X016746Y016782D01*
X016669Y016797D01*
X016592Y016782D01*
X016527Y016738D01*
X016496D01*
X016431Y016782D01*
X016404Y016787D01*
Y016311D01*
X016304D01*
Y016787D01*
X016278Y016782D01*
X016214Y016739D01*
X016198Y016748D01*
X016171Y016766D01*
Y016768D01*
X017324Y017922D01*
X018896D01*
X018915Y017876D01*
D02*
G37*
%LPC*%
G36*
X017743Y011953D02*
Y011755D01*
X017942D01*
X017932Y011804D01*
X017876Y011888D01*
X017792Y011944D01*
X017743Y011953D01*
D02*
G37*
G36*
X017815Y012442D02*
X017389D01*
Y012291D01*
X017624D01*
X017701Y012307D01*
X017766Y012350D01*
X017809Y012415D01*
X017815Y012442D01*
D02*
G37*
G36*
X017666Y016576D02*
X017467D01*
Y016377D01*
X017516Y016387D01*
X017600Y016443D01*
X017656Y016527D01*
X017666Y016576D01*
D02*
G37*
G36*
X017643Y011953D02*
X017594Y011944D01*
X017510Y011888D01*
X017454Y011804D01*
X017444Y011755D01*
X017643D01*
Y011953D01*
D02*
G37*
G36*
X017367Y016875D02*
X017318Y016865D01*
X017234Y016809D01*
X017178Y016725D01*
X017169Y016676D01*
X017367D01*
Y016875D01*
D02*
G37*
G36*
X017467D02*
Y016676D01*
X017666D01*
X017656Y016725D01*
X017600Y016809D01*
X017516Y016865D01*
X017467Y016875D01*
D02*
G37*
G36*
X017367Y016576D02*
X017169D01*
X017178Y016527D01*
X017234Y016443D01*
X017318Y016387D01*
X017367Y016377D01*
Y016576D01*
D02*
G37*
G36*
X017942Y011655D02*
X017743D01*
Y011456D01*
X017792Y011466D01*
X017876Y011522D01*
X017932Y011606D01*
X017942Y011655D01*
D02*
G37*
G36*
X017643D02*
X017444D01*
X017454Y011606D01*
X017510Y011522D01*
X017594Y011466D01*
X017643Y011456D01*
Y011655D01*
D02*
G37*
%LPD*%
D10*
X012693Y010681D02*
D03*
X013598D02*
D03*
D11*
X015862Y008752D02*
D03*
X015272D02*
D03*
D12*
X010449Y016528D02*
D03*
Y015937D02*
D03*
D13*
X007299Y017059D02*
D03*
X007850D02*
D03*
X008126Y014933D02*
D03*
X007575D02*
D03*
X013874Y017098D02*
D03*
X014425D02*
D03*
D14*
X028205Y012177D02*
D03*
Y012728D02*
D03*
X028205Y013831D02*
D03*
Y013280D02*
D03*
X009228Y014343D02*
D03*
Y013791D02*
D03*
D15*
X019661Y016587D02*
D03*
X028087D02*
D03*
D16*
X020921Y015484D02*
D03*
X024465D02*
D03*
D17*
X021315D02*
D03*
X021709D02*
D03*
X022102D02*
D03*
X022496D02*
D03*
X022890D02*
D03*
X023283D02*
D03*
X023677D02*
D03*
X024071D02*
D03*
X024858D02*
D03*
X025252D02*
D03*
X025646D02*
D03*
X026039D02*
D03*
X026433D02*
D03*
X026827D02*
D03*
D18*
X015370Y010091D02*
D03*
D19*
X015114D02*
D03*
X014858D02*
D03*
D20*
X031512Y012965D02*
D03*
D21*
X029228Y012059D02*
D03*
Y012965D02*
D03*
Y013870D02*
D03*
D22*
X012850Y015642D02*
D03*
Y015327D02*
D03*
Y015012D02*
D03*
Y014697D02*
D03*
Y014382D02*
D03*
Y014067D02*
D03*
Y013752D02*
D03*
Y013437D02*
D03*
Y013122D02*
D03*
Y012807D02*
D03*
Y012492D02*
D03*
X017339D02*
D03*
Y012807D02*
D03*
Y013122D02*
D03*
Y013437D02*
D03*
Y013752D02*
D03*
Y014067D02*
D03*
Y014382D02*
D03*
Y014697D02*
D03*
Y015012D02*
D03*
Y015327D02*
D03*
Y015642D02*
D03*
D23*
X013520Y011823D02*
D03*
X013835D02*
D03*
X014150D02*
D03*
X014465D02*
D03*
X014780D02*
D03*
X015094D02*
D03*
X015409D02*
D03*
X015724D02*
D03*
X016039D02*
D03*
X016354D02*
D03*
X016669D02*
D03*
Y016311D02*
D03*
X016354D02*
D03*
X016039D02*
D03*
X015724D02*
D03*
X015409D02*
D03*
X015094D02*
D03*
X014780D02*
D03*
X014465D02*
D03*
X014150D02*
D03*
X013835D02*
D03*
X013520D02*
D03*
D24*
X024346Y011902D02*
X025843D01*
X023598Y012650D02*
X024346Y011902D01*
X023598Y012650D02*
Y012768D01*
X014220Y012504D02*
X015602D01*
X012850Y014067D02*
X013198D01*
X013402Y013862D01*
X012850Y013752D02*
X013184D01*
Y013752D01*
X013177D02*
X013184D01*
X012220Y013752D02*
X013177D01*
X013177Y013752D01*
X009693Y014992D02*
X009996Y015295D01*
X012154Y013818D02*
X012220Y013752D01*
X012154Y013769D02*
Y013818D01*
X017339Y012807D02*
X017850D01*
X012968Y008122D02*
X013598Y008752D01*
X012968Y007886D02*
Y008122D01*
X012968Y007886D02*
X012968Y007886D01*
X012968Y007413D02*
Y007886D01*
X013598Y008752D02*
X015272D01*
X013598D02*
X014150Y009303D01*
Y011823D01*
X027850Y011823D02*
X027850D01*
X028205Y012177D01*
X012417Y006862D02*
X012968Y007413D01*
X028283Y012138D02*
X028362Y012059D01*
X029228D01*
X029583Y006862D02*
Y010996D01*
X029228Y011350D02*
X029583Y010996D01*
X029228Y011350D02*
Y012059D01*
X028205Y013831D02*
X029268D01*
X027772D02*
X028205D01*
X025843Y011902D02*
X027772Y013831D01*
X014150Y016311D02*
Y016783D01*
X014425Y017059D02*
Y017138D01*
X014150Y016783D02*
X014425Y017059D01*
X024606Y001799D02*
X029591Y006783D01*
X007362Y001799D02*
X012339Y006776D01*
X013402Y013909D02*
X013756Y014264D01*
Y015248D01*
X013520Y015484D02*
X013756Y015248D01*
X013520Y015484D02*
Y016311D01*
X016669Y013571D02*
Y016311D01*
X015913Y012815D02*
X015921Y012807D01*
X013756Y015248D02*
X014150Y015642D01*
Y016311D01*
X015602Y012504D02*
X015606D01*
X014150Y011862D02*
Y012433D01*
X015913Y012815D02*
X016669Y013571D01*
X015602Y012504D02*
X015913Y012815D01*
X017850Y012807D02*
X018362Y012295D01*
X015921Y012807D02*
X017417D01*
X014150Y012433D02*
X014220Y012504D01*
X013402Y013239D02*
Y013862D01*
Y013239D02*
X014177Y012465D01*
X009996Y015327D02*
X010512Y014811D01*
X012154Y013769D02*
X012157Y013772D01*
X012220D01*
X012822Y014095D02*
X012850Y014067D01*
X009642Y017256D02*
Y017295D01*
Y017256D02*
X009996Y016902D01*
Y015327D02*
Y016902D01*
X010370Y016528D01*
X010429D01*
X010512Y014811D02*
X011398D01*
X012114Y014095D01*
X012822D01*
D25*
X008244Y017063D02*
X008248Y017059D01*
X007894Y017075D02*
X007898Y017071D01*
X008248D01*
X011748Y018319D02*
X012378Y018949D01*
X011748Y015012D02*
Y018319D01*
Y015012D02*
X012063Y014697D01*
X009622Y010799D02*
X010213Y011390D01*
X015409Y011232D02*
Y011665D01*
Y011232D02*
X016551Y010091D01*
X015724Y011232D02*
Y011705D01*
Y011232D02*
X016630Y010327D01*
X016039Y011311D02*
Y011783D01*
Y011311D02*
X016787Y010563D01*
X016354Y011311D02*
Y011862D01*
Y011311D02*
X016866Y010799D01*
X016669Y011311D02*
X016945Y011035D01*
X016669Y011311D02*
Y011783D01*
X028205Y012768D02*
Y013280D01*
X028205Y012965D02*
X029228D01*
X023283Y014894D02*
Y015248D01*
X023677Y014894D02*
Y015130D01*
X024071Y014894D02*
Y015169D01*
X024858Y014894D02*
Y015169D01*
X025252Y014894D02*
Y015209D01*
X026827Y014894D02*
X026827D01*
X025252Y013319D02*
X026827Y014894D01*
X026433D02*
Y015484D01*
X026433Y014894D02*
X026433D01*
X026039D02*
X026039D01*
X026827D02*
Y015484D01*
X026039Y014894D02*
Y015484D01*
X025646Y014894D02*
Y015484D01*
X013835Y017177D02*
X013874Y017217D01*
X012181Y015012D02*
X012811D01*
X012024Y015169D02*
X012181Y015012D01*
X012024Y015169D02*
Y016902D01*
X012693Y017571D01*
Y017925D01*
X012063Y014697D02*
X012890D01*
X013835Y016311D02*
Y017177D01*
X014858Y010130D02*
Y010760D01*
X014780Y010839D02*
X014858Y010760D01*
X014780Y010839D02*
Y011823D01*
X015094Y011035D02*
Y011823D01*
Y011035D02*
X015370Y010760D01*
Y010091D02*
Y010760D01*
X010823Y013378D02*
Y014146D01*
Y013378D02*
X011709Y012492D01*
X012850D01*
X011827Y012807D02*
X012850D01*
X011453Y013535D02*
Y013949D01*
Y013535D02*
X011866Y013122D01*
X012850D01*
X011768Y013673D02*
X012004Y013437D01*
X012850D01*
X010480Y015528D02*
Y015843D01*
X015862Y008752D02*
X016748D01*
X016748Y008752D01*
X008126Y014933D02*
X008146D01*
X008346Y015134D01*
X014465Y015516D02*
Y016311D01*
X014772Y016303D02*
X014780Y016311D01*
X014268Y013512D02*
Y015319D01*
X014465Y015516D01*
X015094Y015484D02*
Y016272D01*
X014772Y015476D02*
Y016303D01*
X015409Y015524D02*
Y016311D01*
X024356Y010799D02*
X026856D01*
X026866D01*
X013835Y010720D02*
Y011823D01*
X010213Y011390D02*
X013087D01*
X013520Y011823D01*
X019050Y010799D02*
X024346D01*
X025038Y013499D02*
X026433Y014894D01*
X024825Y013679D02*
X026039Y014894D01*
X024611Y013859D02*
X025646Y014894D01*
X024397Y014039D02*
X025252Y014894D01*
X024183Y014219D02*
X024858Y014894D01*
X023576Y014399D02*
X024071Y014894D01*
X023362Y014579D02*
X023677Y014894D01*
X023149Y014759D02*
X023283Y014894D01*
X018341Y010091D02*
X019050Y010799D01*
X016551Y010091D02*
X018341D01*
X016630Y010327D02*
X018205D01*
X016787Y010563D02*
X018186D01*
X016866Y010799D02*
X018168D01*
X016945Y011035D02*
X018150D01*
X017417Y013122D02*
X019982D01*
X017417Y013437D02*
X020042D01*
X017417Y013752D02*
X020103D01*
X017417Y014067D02*
X020163D01*
X017457Y014382D02*
X020223D01*
X017378Y014697D02*
X020284D01*
X020874Y015287D02*
X020921D01*
X018205Y010327D02*
X021197Y013319D01*
X025252D01*
X018186Y010563D02*
X021122Y013499D01*
X025038D01*
X018168Y010799D02*
X021048Y013679D01*
X024825D01*
X018150Y011035D02*
X020973Y013859D01*
X024611D01*
X019982Y013122D02*
X020899Y014039D01*
X024397D01*
X020042Y013437D02*
X020824Y014219D01*
X024183D01*
X020103Y013752D02*
X020749Y014399D01*
X023576D01*
X020163Y014067D02*
X020675Y014579D01*
X023362D01*
X020223Y014382D02*
X020600Y014759D01*
X023149D01*
X020284Y014697D02*
X020874Y015287D01*
X018087Y015642D02*
X018323Y015878D01*
Y017098D01*
X018503Y015803D02*
Y017024D01*
X018683Y015729D02*
Y016949D01*
X019247Y017513D01*
X017339Y015012D02*
X017966D01*
X018683Y015729D01*
X017339Y015327D02*
X018026D01*
X018503Y015803D01*
Y017024D02*
X019172Y017693D01*
X017339Y015642D02*
X018087D01*
X018323Y017098D02*
X019098Y017873D01*
X016039Y016823D02*
X017270Y018053D01*
X015724Y016823D02*
X017135Y018233D01*
X016039Y016311D02*
Y016823D01*
X015724Y016311D02*
Y016823D01*
X019247Y017513D02*
X020388D01*
X021315Y016587D01*
Y015484D02*
Y016587D01*
X019172Y017693D02*
X020463D01*
X021709Y016447D01*
Y015484D02*
Y016447D01*
X019098Y017873D02*
X020538D01*
X022102Y016308D01*
Y015484D02*
Y016308D01*
X022890Y015484D02*
Y016154D01*
X017135Y018233D02*
X020810D01*
X022890Y016154D01*
X017270Y018053D02*
X020636D01*
X022496Y016193D01*
Y015484D02*
Y016193D01*
X007112Y010799D02*
X009612D01*
X009622D01*
X012850Y015681D02*
Y016114D01*
X014949Y014764D02*
X014957D01*
Y014744D02*
X014961Y014768D01*
X014583Y013650D02*
X014606Y013673D01*
Y015311D01*
X014772Y015476D01*
X015291Y013661D02*
X015311Y013681D01*
Y015268D01*
X015094Y015484D02*
X015311Y015268D01*
X015646Y013476D02*
X015665Y013496D01*
Y015268D01*
X015409Y015524D02*
X015665Y015268D01*
X014957Y013406D02*
Y014744D01*
X014933Y013402D02*
X014957Y013406D01*
X008500Y014992D02*
X009110D01*
X009268Y014756D01*
Y014472D02*
Y014756D01*
X011138Y013496D02*
X011827Y012807D01*
X011138Y013496D02*
Y014441D01*
X008047Y015445D02*
X008500Y014992D01*
X008047Y015445D02*
Y015661D01*
X008047Y015740D02*
X008047Y015661D01*
X008047Y015740D02*
Y016724D01*
X008047D02*
X008248Y016925D01*
Y017059D01*
X023658Y004921D02*
Y005521D01*
X023358Y005221D01*
X023758D01*
X023958Y005421D02*
X024058Y005521D01*
X024258D01*
X024358Y005421D01*
Y005321D01*
X024258Y005221D01*
X024158D01*
X024258D01*
X024358Y005121D01*
Y005021D01*
X024258Y004921D01*
X024058D01*
X023958Y005021D01*
X024558Y005521D02*
X024958D01*
Y005421D01*
X024558Y005021D01*
Y004921D01*
X025158Y005421D02*
X025258Y005521D01*
X025458D01*
X025558Y005421D01*
Y005021D01*
X025458Y004921D01*
X025258D01*
X025158Y005021D01*
Y005421D01*
X023758Y006651D02*
X023358D01*
Y006051D01*
X023758D01*
X023358Y006351D02*
X023558D01*
X024358Y006551D02*
X024258Y006651D01*
X024058D01*
X023958Y006551D01*
Y006151D01*
X024058Y006051D01*
X024258D01*
X024358Y006151D01*
X024958Y006651D02*
X024558D01*
Y006051D01*
X024958D01*
X024558Y006351D02*
X024758D01*
X025158Y006651D02*
X025558D01*
X025358D01*
Y006051D01*
X006313Y005494D02*
X005913D01*
Y004894D01*
X006313D01*
X005913Y005194D02*
X006113D01*
X006513Y004894D02*
X006713D01*
X006613D01*
Y005494D01*
X006513D01*
X007013Y004894D02*
Y005494D01*
Y005094D02*
X007313Y005294D01*
X007013Y005094D02*
X007313Y004894D01*
X007613D02*
X007813D01*
X007713D01*
Y005294D01*
X007613D01*
X008113Y004894D02*
Y005294D01*
X008413D01*
X008513Y005194D01*
Y004894D01*
X008712D02*
X009012D01*
X009112Y004994D01*
X009012Y005094D01*
X008812D01*
X008712Y005194D01*
X008812Y005294D01*
X009112D01*
X006313Y006390D02*
X006213Y006490D01*
X006013D01*
X005913Y006390D01*
Y005990D01*
X006013Y005890D01*
X006213D01*
X006313Y005990D01*
X006513Y006490D02*
Y005890D01*
Y006190D01*
X006613Y006290D01*
X006813D01*
X006913Y006190D01*
Y005890D01*
X007113Y006290D02*
Y005890D01*
Y006090D01*
X007213Y006190D01*
X007313Y006290D01*
X007413D01*
X007713Y005890D02*
X007913D01*
X007813D01*
Y006290D01*
X007713D01*
X008213Y005890D02*
X008513D01*
X008613Y005990D01*
X008513Y006090D01*
X008313D01*
X008213Y006190D01*
X008313Y006290D01*
X008613D01*
D26*
X024465Y016823D02*
D03*
D27*
X009191Y016154D02*
D03*
D28*
X031492Y012965D02*
D03*
D29*
X025433Y012638D02*
D03*
X023583D02*
D03*
X021732D02*
D03*
D30*
X014130Y018740D02*
D03*
Y018134D02*
D03*
Y018538D02*
D03*
Y018336D02*
D03*
X011256D02*
D03*
Y018538D02*
D03*
Y018134D02*
D03*
Y018740D02*
D03*
D31*
X018992Y006587D02*
D03*
D32*
X017720Y018831D02*
D03*
X016720D02*
D03*
X017760Y008713D02*
D03*
X016760D02*
D03*
D33*
X012362Y004799D02*
D03*
Y005799D02*
D03*
Y006799D02*
D03*
X007362Y001799D02*
D03*
X008362D02*
D03*
X009362D02*
D03*
X007112Y008799D02*
D03*
X009612D02*
D03*
X007112Y010799D02*
D03*
X009612D02*
D03*
X029606Y004799D02*
D03*
Y005799D02*
D03*
Y006799D02*
D03*
X024606Y001799D02*
D03*
X025606D02*
D03*
X026606D02*
D03*
X024356Y008799D02*
D03*
X026856D02*
D03*
X024356Y010799D02*
D03*
X026856D02*
D03*
D34*
X005362Y008424D02*
D03*
Y003174D02*
D03*
X011362D02*
D03*
Y008424D02*
D03*
X022606D02*
D03*
Y003174D02*
D03*
X028606D02*
D03*
Y008424D02*
D03*
D35*
X029504Y016402D02*
D03*
D36*
Y017402D02*
D03*
D37*
X012378Y018949D02*
D03*
X012693Y017925D02*
D03*
D38*
X013008Y018949D02*
D03*
X012063Y017925D02*
D03*
X013323D02*
D03*
D39*
X014130Y018437D02*
D03*
X011256D02*
D03*
D40*
X008248Y017071D02*
D03*
X010480Y015421D02*
D03*
X003681Y017197D02*
D03*
X017693Y011705D02*
D03*
X017417Y016626D02*
D03*
X027811Y011823D02*
D03*
X003717Y014657D02*
D03*
Y012925D02*
D03*
X004622Y017217D02*
D03*
X005213Y014657D02*
D03*
X013579Y009874D02*
D03*
X009543Y018909D02*
D03*
X006945Y018949D02*
D03*
X002299Y008043D02*
D03*
X012850Y016114D02*
D03*
X018362Y012295D02*
D03*
X014957Y013370D02*
D03*
X014949Y014764D02*
D03*
X015669Y013370D02*
D03*
X015313Y013638D02*
D03*
X014600D02*
D03*
X014244Y013370D02*
D03*
X009685Y014972D02*
D03*
X009268Y014815D02*
D03*
X012220Y013772D02*
D03*
X011138Y014441D02*
D03*
X011453Y013988D02*
D03*
X011827Y013594D02*
D03*
X010823Y014146D02*
D03*
X009524Y017335D02*
D03*
X008047Y015720D02*
D03*
X003717Y009461D02*
D03*
Y011193D02*
D03*
X024465Y017098D02*
D03*
Y016626D02*
D03*
X008992Y015898D02*
D03*
X009465D02*
D03*
X008992Y016370D02*
D03*
X009465D02*
D03*
M02*
