M48
;Layer_Color=9474304
;FILE_FORMAT=2:4
INCH
;TYPE=PLATED
T1F00S00C0.0200
T2F00S00C0.0276
T3F00S00C0.0315
T5F00S00C0.0354
T6F00S00C0.0370
T7F00S00C0.0433
T8F00S00C0.0512
T9F00S00C0.0736
;TYPE=NON_PLATED
T10F00S00C0.0866
%
T01
X002299Y008043
X003717Y009461
Y011193
Y012925
Y014657
X003681Y017197
X004622Y017217
X005213Y014657
X008047Y015720
X008992Y015898
X009465
Y016370
X008992
X008248Y017071
X009524Y017335
X009685Y014972
X009268Y014815
X010480Y015421
X010823Y014146
X011138Y014441
X011453Y013988
X011827Y013594
X012220Y013772
X014244Y013370
X014600Y013638
X014957Y013370
X015313Y013638
X015669Y013370
X014949Y014764
X012850Y016114
X017417Y016626
X017693Y011705
X018362Y012295
X013579Y009874
X027811Y011823
X024465Y016626
Y017098
X009543Y018909
X006945Y018949
T02
X012063Y017925
X012693
X013323
X013008Y018949
X012378
T03
X016760Y008713
X017760
X017720Y018831
X016720
T05
X029504Y016402
Y017402
T06
X011256Y018134
Y018336
Y018538
Y018740
X014130
Y018538
Y018336
Y018134
T07
X024606Y001799
X025606
X026606
X009362
X008362
X007362
X007112Y008799
Y010799
X009612
Y008799
X012362Y006799
Y005799
Y004799
X024356Y008799
Y010799
X026856
Y008799
X029606Y006799
Y005799
Y004799
T08
X021732Y012638
X023583
X025433
T09
X005362Y003174
Y008424
X011362
Y003174
X022606
Y008424
X028606
Y003174
T10
X018992Y006587
M30
