%FSAX24Y24*%
%MOIN*%
G70*
G01*
G75*
G04 Layer_Color=8388736*
%ADD10R,0.0600X0.0600*%
%ADD11R,0.0276X0.0354*%
%ADD12R,0.0354X0.0276*%
%ADD13R,0.0315X0.0354*%
%ADD14R,0.0354X0.0315*%
%ADD15R,0.0866X0.1142*%
%ADD16R,0.0236X0.1024*%
%ADD17O,0.0236X0.1024*%
%ADD18R,0.0118X0.0630*%
%ADD19O,0.0118X0.0630*%
%ADD20R,0.0945X0.1299*%
%ADD21R,0.0945X0.0394*%
%ADD22O,0.0807X0.0236*%
%ADD23O,0.0236X0.0807*%
%ADD24C,0.0139*%
%ADD25C,0.0100*%
%ADD26R,0.0630X0.1181*%
%ADD27R,0.1075X0.1126*%
%ADD28R,0.1299X0.1654*%
%ADD29C,0.0787*%
%ADD30O,0.0591X0.0866*%
%ADD31C,0.0600*%
%ADD32C,0.0630*%
%ADD33C,0.0700*%
%ADD34C,0.1057*%
%ADD35R,0.0591X0.0591*%
%ADD36C,0.0591*%
%ADD37O,0.0433X0.0669*%
%ADD38C,0.0157*%
%ADD39O,0.0630X0.1535*%
%ADD40C,0.0350*%
%ADD41R,0.0618X0.0740*%
%ADD42O,0.0610X0.0098*%
%ADD43R,0.0610X0.0098*%
%ADD44R,0.0630X0.0492*%
%ADD45O,0.0276X0.0098*%
%ADD46O,0.0098X0.0276*%
%ADD47R,0.1024X0.1024*%
%ADD48R,0.0394X0.0413*%
%ADD49R,0.0413X0.0866*%
%ADD50C,0.0218*%
%ADD51C,0.0179*%
%ADD52R,0.0402X0.1055*%
%ADD53R,0.0197X0.1173*%
%ADD54R,0.1130X0.0197*%
%ADD55R,0.2012X0.0197*%
%ADD56R,0.1957X0.0354*%
%ADD57R,0.0197X0.1969*%
%ADD58R,0.1114X0.0197*%
%ADD59R,0.0197X0.0984*%
%ADD60R,0.0197X0.0945*%
%ADD61R,0.1098X0.0197*%
%ADD62R,0.1169X0.0197*%
%ADD63R,0.1126X0.0197*%
%ADD64R,0.0197X0.1063*%
%ADD65R,0.2598X0.1080*%
%ADD66R,0.1024X0.1063*%
%ADD67R,0.1929X0.2992*%
%ADD68R,0.0709X0.1260*%
%ADD69R,0.0680X0.0680*%
%ADD70R,0.0356X0.0434*%
%ADD71R,0.0434X0.0356*%
%ADD72R,0.0395X0.0434*%
%ADD73R,0.0434X0.0395*%
%ADD74R,0.0946X0.1222*%
%ADD75R,0.0316X0.1104*%
%ADD76O,0.0316X0.1104*%
%ADD77R,0.0198X0.0710*%
%ADD78O,0.0198X0.0710*%
%ADD79R,0.1025X0.1379*%
%ADD80R,0.1025X0.0474*%
%ADD81O,0.0862X0.0291*%
%ADD82O,0.0291X0.0862*%
%ADD83C,0.0867*%
%ADD84O,0.0671X0.0946*%
%ADD85C,0.0680*%
%ADD86C,0.0710*%
%ADD87C,0.0780*%
%ADD88C,0.1137*%
%ADD89R,0.0671X0.0671*%
%ADD90C,0.0671*%
%ADD91O,0.0513X0.0749*%
%ADD92C,0.0237*%
%ADD93O,0.0710X0.1615*%
D66*
X009228Y016134D02*
D03*
D67*
X031650Y012846D02*
D03*
D68*
X024465Y016862D02*
D03*
D69*
X012693Y010681D02*
D03*
X013598D02*
D03*
D70*
X015862Y008752D02*
D03*
X015272D02*
D03*
D71*
X010449Y016528D02*
D03*
Y015937D02*
D03*
D72*
X007299Y017059D02*
D03*
X007850D02*
D03*
X008126Y014933D02*
D03*
X007575D02*
D03*
X013874Y017098D02*
D03*
X014425D02*
D03*
D73*
X028205Y012177D02*
D03*
Y012728D02*
D03*
X028205Y013831D02*
D03*
Y013280D02*
D03*
X009228Y014343D02*
D03*
Y013791D02*
D03*
D74*
X019661Y016587D02*
D03*
X028087D02*
D03*
D75*
X020921Y015484D02*
D03*
X024465D02*
D03*
D76*
X021315D02*
D03*
X021709D02*
D03*
X022102D02*
D03*
X022496D02*
D03*
X022890D02*
D03*
X023283D02*
D03*
X023677D02*
D03*
X024071D02*
D03*
X024858D02*
D03*
X025252D02*
D03*
X025646D02*
D03*
X026039D02*
D03*
X026433D02*
D03*
X026827D02*
D03*
D77*
X015370Y010091D02*
D03*
D78*
X015114D02*
D03*
X014858D02*
D03*
D79*
X031512Y012965D02*
D03*
D80*
X029228Y012059D02*
D03*
Y012965D02*
D03*
Y013870D02*
D03*
D81*
X012850Y015642D02*
D03*
Y015327D02*
D03*
Y015012D02*
D03*
Y014697D02*
D03*
Y014382D02*
D03*
Y014067D02*
D03*
Y013752D02*
D03*
Y013437D02*
D03*
Y013122D02*
D03*
Y012807D02*
D03*
Y012492D02*
D03*
X017339D02*
D03*
Y012807D02*
D03*
Y013122D02*
D03*
Y013437D02*
D03*
Y013752D02*
D03*
Y014067D02*
D03*
Y014382D02*
D03*
Y014697D02*
D03*
Y015012D02*
D03*
Y015327D02*
D03*
Y015642D02*
D03*
D82*
X013520Y011823D02*
D03*
X013835D02*
D03*
X014150D02*
D03*
X014465D02*
D03*
X014780D02*
D03*
X015094D02*
D03*
X015409D02*
D03*
X015724D02*
D03*
X016039D02*
D03*
X016354D02*
D03*
X016669D02*
D03*
Y016311D02*
D03*
X016354D02*
D03*
X016039D02*
D03*
X015724D02*
D03*
X015409D02*
D03*
X015094D02*
D03*
X014780D02*
D03*
X014465D02*
D03*
X014150D02*
D03*
X013835D02*
D03*
X013520D02*
D03*
D83*
X025433Y012638D02*
D03*
X023583D02*
D03*
X021732D02*
D03*
D84*
X014130Y018740D02*
D03*
Y018134D02*
D03*
Y018538D02*
D03*
Y018336D02*
D03*
X011256D02*
D03*
Y018538D02*
D03*
Y018134D02*
D03*
Y018740D02*
D03*
D85*
X018992Y006587D02*
D03*
D86*
X017720Y018831D02*
D03*
X016720D02*
D03*
X017760Y008713D02*
D03*
X016760D02*
D03*
D87*
X012362Y004799D02*
D03*
Y005799D02*
D03*
Y006799D02*
D03*
X007362Y001799D02*
D03*
X008362D02*
D03*
X009362D02*
D03*
X007112Y008799D02*
D03*
X009612D02*
D03*
X007112Y010799D02*
D03*
X009612D02*
D03*
X029606Y004799D02*
D03*
Y005799D02*
D03*
Y006799D02*
D03*
X024606Y001799D02*
D03*
X025606D02*
D03*
X026606D02*
D03*
X024356Y008799D02*
D03*
X026856D02*
D03*
X024356Y010799D02*
D03*
X026856D02*
D03*
D88*
X005362Y008424D02*
D03*
Y003174D02*
D03*
X011362D02*
D03*
Y008424D02*
D03*
X022606D02*
D03*
Y003174D02*
D03*
X028606D02*
D03*
Y008424D02*
D03*
D89*
X029504Y016402D02*
D03*
D90*
Y017402D02*
D03*
D91*
X012378Y018949D02*
D03*
X012693Y017925D02*
D03*
D92*
X013008Y018949D02*
D03*
X012063Y017925D02*
D03*
X013323D02*
D03*
D93*
X014130Y018437D02*
D03*
X011256D02*
D03*
M02*
