%FSAX24Y24*%
%MOIN*%
G70*
G01*
G75*
G04 Layer_Color=16711935*
%ADD10R,0.0600X0.0600*%
%ADD11R,0.0276X0.0354*%
%ADD12R,0.0354X0.0276*%
%ADD13R,0.0315X0.0354*%
%ADD14R,0.0354X0.0315*%
%ADD15R,0.0866X0.1142*%
%ADD16R,0.0236X0.1024*%
%ADD17O,0.0236X0.1024*%
%ADD18R,0.0118X0.0630*%
%ADD19O,0.0118X0.0630*%
%ADD20R,0.0945X0.1299*%
%ADD21R,0.0945X0.0394*%
%ADD22O,0.0807X0.0236*%
%ADD23O,0.0236X0.0807*%
%ADD24C,0.0139*%
%ADD25C,0.0100*%
%ADD26R,0.0630X0.1181*%
%ADD27R,0.1075X0.1126*%
%ADD28R,0.1299X0.1654*%
%ADD29C,0.0787*%
%ADD30O,0.0591X0.0866*%
%ADD31C,0.0600*%
%ADD32C,0.0630*%
%ADD33C,0.0700*%
%ADD34C,0.1057*%
%ADD35R,0.0591X0.0591*%
%ADD36C,0.0591*%
%ADD37O,0.0433X0.0669*%
%ADD38C,0.0157*%
%ADD39O,0.0630X0.1535*%
%ADD40C,0.0350*%
%ADD41R,0.0618X0.0740*%
%ADD42O,0.0610X0.0098*%
%ADD43R,0.0610X0.0098*%
%ADD44R,0.0630X0.0492*%
%ADD45O,0.0276X0.0098*%
%ADD46O,0.0098X0.0276*%
%ADD47R,0.1024X0.1024*%
%ADD48R,0.0394X0.0413*%
%ADD49R,0.0413X0.0866*%
%ADD50C,0.0218*%
%ADD51C,0.0179*%
%ADD52R,0.0402X0.1055*%
%ADD53R,0.0197X0.1173*%
%ADD54R,0.1130X0.0197*%
%ADD55R,0.2012X0.0197*%
%ADD56R,0.1957X0.0354*%
%ADD57R,0.0197X0.1969*%
%ADD58R,0.1114X0.0197*%
%ADD59R,0.0197X0.0984*%
%ADD60R,0.0197X0.0945*%
%ADD61R,0.1098X0.0197*%
%ADD62R,0.1169X0.0197*%
%ADD63R,0.1126X0.0197*%
%ADD64R,0.0197X0.1063*%
%ADD65R,0.2598X0.1080*%
%ADD66R,0.1024X0.1063*%
%ADD67R,0.1929X0.2992*%
%ADD68R,0.0709X0.1260*%
%ADD69R,0.0680X0.0680*%
%ADD70R,0.0356X0.0434*%
%ADD71R,0.0434X0.0356*%
%ADD72R,0.0395X0.0434*%
%ADD73R,0.0434X0.0395*%
%ADD74R,0.0946X0.1222*%
%ADD75R,0.0316X0.1104*%
%ADD76O,0.0316X0.1104*%
%ADD77R,0.0198X0.0710*%
%ADD78O,0.0198X0.0710*%
%ADD79R,0.1025X0.1379*%
%ADD80R,0.1025X0.0474*%
%ADD81O,0.0862X0.0291*%
%ADD82O,0.0291X0.0862*%
%ADD83C,0.0867*%
%ADD84O,0.0671X0.0946*%
%ADD85C,0.0680*%
%ADD86C,0.0710*%
%ADD87C,0.0780*%
%ADD88C,0.1137*%
%ADD89R,0.0671X0.0671*%
%ADD90C,0.0671*%
%ADD91O,0.0513X0.0749*%
%ADD92C,0.0237*%
%ADD93O,0.0710X0.1615*%
%ADD94R,0.0689X0.0811*%
%ADD95O,0.0681X0.0169*%
%ADD96R,0.0681X0.0169*%
%ADD97R,0.0710X0.0572*%
%ADD98O,0.0346X0.0169*%
%ADD99O,0.0169X0.0346*%
%ADD100R,0.1094X0.1094*%
%ADD101R,0.0474X0.0493*%
%ADD102R,0.0493X0.0946*%
D70*
X006539Y015701D02*
D03*
X007130D02*
D03*
X009563Y014303D02*
D03*
X010154D02*
D03*
X008343D02*
D03*
X008933D02*
D03*
X027043Y017453D02*
D03*
X027634D02*
D03*
D71*
X007614Y015701D02*
D03*
Y015110D02*
D03*
X018480Y018654D02*
D03*
Y019244D02*
D03*
X022850Y017039D02*
D03*
Y017630D02*
D03*
X022260Y016744D02*
D03*
Y017335D02*
D03*
X007063Y014598D02*
D03*
Y015189D02*
D03*
D72*
X006559Y016252D02*
D03*
X007110D02*
D03*
D73*
X007693Y016941D02*
D03*
Y016390D02*
D03*
Y013220D02*
D03*
Y012669D02*
D03*
X010921Y012669D02*
D03*
Y013220D02*
D03*
X009543Y017728D02*
D03*
Y018280D02*
D03*
X021669Y016468D02*
D03*
Y017020D02*
D03*
D83*
X025433Y012638D02*
D03*
X023583D02*
D03*
X021732D02*
D03*
D84*
X014130Y018740D02*
D03*
Y018134D02*
D03*
Y018538D02*
D03*
Y018336D02*
D03*
X011256D02*
D03*
Y018538D02*
D03*
Y018134D02*
D03*
Y018740D02*
D03*
D85*
X018992Y006587D02*
D03*
D86*
X017720Y018831D02*
D03*
X016720D02*
D03*
X017760Y008713D02*
D03*
X016760D02*
D03*
D87*
X012362Y004799D02*
D03*
Y005799D02*
D03*
Y006799D02*
D03*
X007362Y001799D02*
D03*
X008362D02*
D03*
X009362D02*
D03*
X007112Y008799D02*
D03*
X009612D02*
D03*
X007112Y010799D02*
D03*
X009612D02*
D03*
X029606Y004799D02*
D03*
Y005799D02*
D03*
Y006799D02*
D03*
X024606Y001799D02*
D03*
X025606D02*
D03*
X026606D02*
D03*
X024356Y008799D02*
D03*
X026856D02*
D03*
X024356Y010799D02*
D03*
X026856D02*
D03*
D88*
X005362Y008424D02*
D03*
Y003174D02*
D03*
X011362D02*
D03*
Y008424D02*
D03*
X022606D02*
D03*
Y003174D02*
D03*
X028606D02*
D03*
Y008424D02*
D03*
D89*
X029504Y016402D02*
D03*
D90*
Y017402D02*
D03*
D91*
X012378Y018949D02*
D03*
X013008D02*
D03*
X012063Y017925D02*
D03*
X013323D02*
D03*
X012693D02*
D03*
D93*
X014130Y018437D02*
D03*
X011256D02*
D03*
D94*
X024465Y016862D02*
D03*
D95*
X025291Y017256D02*
D03*
Y017059D02*
D03*
Y016862D02*
D03*
Y016665D02*
D03*
Y016468D02*
D03*
X023638Y017256D02*
D03*
Y017059D02*
D03*
Y016862D02*
D03*
Y016665D02*
D03*
D96*
Y016468D02*
D03*
D97*
X008559Y012374D02*
D03*
Y013240D02*
D03*
X010016D02*
D03*
Y012374D02*
D03*
D98*
X008461Y015642D02*
D03*
Y015839D02*
D03*
Y016035D02*
D03*
Y016232D02*
D03*
Y016429D02*
D03*
Y016626D02*
D03*
X009996D02*
D03*
Y016429D02*
D03*
Y016232D02*
D03*
Y016035D02*
D03*
Y015839D02*
D03*
Y015642D02*
D03*
D99*
X008736Y016902D02*
D03*
X008933D02*
D03*
X009130D02*
D03*
X009327D02*
D03*
X009524D02*
D03*
X009720D02*
D03*
Y015366D02*
D03*
X009524D02*
D03*
X009327D02*
D03*
X009130D02*
D03*
X008933D02*
D03*
X008736D02*
D03*
D100*
X009228Y016134D02*
D03*
D101*
X006118Y016970D02*
D03*
D102*
X005537Y017571D02*
D03*
X006699D02*
D03*
M02*
