%FSAX24Y24*%
%MOIN*%
G70*
G01*
G75*
G04 Layer_Color=16711935*
%ADD10R,0.0600X0.0600*%
%ADD11R,0.0276X0.0354*%
%ADD12R,0.0354X0.0276*%
%ADD13R,0.0315X0.0354*%
%ADD14R,0.0354X0.0315*%
%ADD15R,0.0866X0.1142*%
%ADD16R,0.0236X0.1024*%
%ADD17O,0.0236X0.1024*%
%ADD18R,0.0118X0.0630*%
%ADD19O,0.0118X0.0630*%
%ADD20R,0.0945X0.1299*%
%ADD21R,0.0945X0.0394*%
%ADD22O,0.0807X0.0236*%
%ADD23O,0.0236X0.0807*%
%ADD24C,0.0139*%
%ADD25C,0.0100*%
%ADD26R,0.0630X0.1181*%
%ADD27R,0.1075X0.1126*%
%ADD28R,0.1299X0.1654*%
%ADD29C,0.0787*%
%ADD30O,0.0591X0.0866*%
%ADD31C,0.0600*%
%ADD32C,0.0630*%
%ADD33C,0.0700*%
%ADD34C,0.1057*%
%ADD35R,0.0591X0.0591*%
%ADD36C,0.0591*%
%ADD37O,0.0433X0.0669*%
%ADD38C,0.0157*%
%ADD39O,0.0630X0.1535*%
%ADD40C,0.0350*%
%ADD41R,0.0618X0.0740*%
%ADD42O,0.0610X0.0098*%
%ADD43R,0.0610X0.0098*%
%ADD44R,0.0630X0.0492*%
%ADD45O,0.0276X0.0098*%
%ADD46O,0.0098X0.0276*%
%ADD47R,0.1024X0.1024*%
%ADD48R,0.0394X0.0413*%
%ADD49R,0.0413X0.0866*%
%ADD50C,0.0218*%
%ADD51C,0.0179*%
%ADD52R,0.0402X0.1055*%
%ADD53R,0.0197X0.1173*%
%ADD54R,0.1130X0.0197*%
%ADD55R,0.2012X0.0197*%
%ADD56R,0.1957X0.0354*%
%ADD57R,0.0197X0.1969*%
%ADD58R,0.1114X0.0197*%
%ADD59R,0.0197X0.0984*%
%ADD60R,0.0197X0.0945*%
%ADD61R,0.1098X0.0197*%
%ADD62R,0.1169X0.0197*%
%ADD63R,0.1126X0.0197*%
%ADD64R,0.0197X0.1063*%
%ADD65R,0.2598X0.1080*%
%ADD66R,0.1024X0.1063*%
%ADD67R,0.1929X0.2992*%
%ADD68R,0.0709X0.1260*%
%ADD69R,0.0680X0.0680*%
%ADD70R,0.0356X0.0434*%
%ADD71R,0.0434X0.0356*%
%ADD72R,0.0395X0.0434*%
%ADD73R,0.0434X0.0395*%
%ADD74R,0.0946X0.1222*%
%ADD75R,0.0316X0.1104*%
%ADD76O,0.0316X0.1104*%
%ADD77R,0.0198X0.0710*%
%ADD78O,0.0198X0.0710*%
%ADD79R,0.1025X0.1379*%
%ADD80R,0.1025X0.0474*%
%ADD81O,0.0862X0.0291*%
%ADD82O,0.0291X0.0862*%
%ADD83C,0.0867*%
%ADD84O,0.0671X0.0946*%
%ADD85C,0.0680*%
%ADD86C,0.0710*%
%ADD87C,0.0780*%
%ADD88C,0.1137*%
%ADD89R,0.0671X0.0671*%
%ADD90C,0.0671*%
%ADD91O,0.0513X0.0749*%
%ADD92C,0.0237*%
%ADD93O,0.0710X0.1615*%
%ADD94R,0.0689X0.0811*%
%ADD95O,0.0681X0.0169*%
%ADD96R,0.0681X0.0169*%
%ADD97R,0.0710X0.0572*%
%ADD98O,0.0346X0.0169*%
%ADD99O,0.0169X0.0346*%
%ADD100R,0.1094X0.1094*%
%ADD101R,0.0474X0.0493*%
%ADD102R,0.0493X0.0946*%
D25*
X020228Y005681D02*
G03*
X030766Y004205I005390J000122D01*
G01*
X003219Y004144D02*
G03*
X013739Y005791I005130J001658D01*
G01*
X003480Y019736D02*
G03*
X006433Y019736I001476J001476D01*
G01*
X013736Y005799D02*
Y007965D01*
X000961Y005012D02*
X002181D01*
X000961Y004146D02*
Y005012D01*
Y004146D02*
X003205D01*
X002181Y005012D02*
Y005720D01*
X000961D02*
X002181D01*
X000961D02*
Y019736D01*
X019228Y018791D02*
Y019736D01*
Y018791D02*
X032850D01*
X006433Y019736D02*
X019228Y019736D01*
X000961Y019736D02*
X003480D01*
X030764Y004185D02*
X032339D01*
X032339Y004185D02*
Y005878D01*
X031472D02*
X032339D01*
X031472D02*
Y006547D01*
Y006547D02*
X032850D01*
X032850D02*
Y018791D01*
X018047Y005681D02*
X020213D01*
X018047D02*
Y007374D01*
X016433D02*
X018047D01*
X015843Y007965D02*
X016433Y007374D01*
X013736Y007965D02*
X015843D01*
M02*
