M48
;Layer_Color=9474304
;FILE_FORMAT=2:4
INCH
;TYPE=PLATED
T1F00S00C0.0200
T2F00S00C0.0276
T4F00S00C0.0370
%
T01
X002740Y001307
X002713Y004736
X002543Y007957
X005748Y005441
X006385Y004655
Y004183
X006857
Y004655
X007831Y004508
X007795Y004937
X007634Y003547
X007024Y003197
X006594Y003114
X008197Y003087
X008673Y002224
X009551Y002921
X009642Y004752
X006980Y005689
X005504Y003815
X012736Y000976
X012575Y007610
T02
X006571Y007020
X007201Y007020
X007831Y007020
X007516Y008043
X006886
T04
X005764Y007228
Y007430
Y007633
Y007835
X008638
Y007633
Y007430
Y007228
M30
